Nodea.sfdir
StartChar: exclam
Encoding: 33 33 42
Width: 150
VWidth: 0
Flags: HW
LayerCount: 2
Fore
SplineSet
25 50 m 3
 25 77 48 100 75 100 c 3
 102 100 125 77 125 50 c 3
 125 23 102 0 75 0 c 3
 48 0 25 23 25 50 c 3
125 250 m 2
 125 223 102 200 75 200 c 0
 48 200 25 223 25 250 c 2
 25 600 l 2
 25 627 48 650 75 650 c 0
 102 650 125 627 125 600 c 2
 125 250 l 2
EndSplineSet
EndChar
StartChar: quotedbl
Encoding: 34 34 45
Width: 275
VWidth: 0
Flags: W
VStem: 25 100<686.362 791.299> 150 100<686.362 791.299>
LayerCount: 2
Fore
SplineSet
250 750 m 4
 250 712 234 694 212 665 c 28
 207 658 193 658 188 665 c 28
 166 694 150 712 150 750 c 4
 150 777 173 800 200 800 c 4
 227 800 250 777 250 750 c 4
125 750 m 0
 125 712 109 694 87 665 c 24
 82 658 68 658 63 665 c 24
 41 694 25 712 25 750 c 0
 25 777 48 800 75 800 c 0
 102 800 125 777 125 750 c 0
EndSplineSet
Validated: 1
EndChar
StartChar: numbersign
Encoding: 35 35 714
Width: 640
VWidth: 0
Flags: W
HStem: 1 21G<142 238 402 498> 138 96<25 142 238 402 498 615> 408 96<25 142 238 402 498 615>
VStem: 142 96<1 138 234 408 504 641> 402 96<1 138 234 408 504 641>
LayerCount: 2
Fore
SplineSet
402 408 m 1
 238 408 l 1
 238 234 l 1
 402 234 l 1
 402 408 l 1
498 408 m 1
 498 234 l 1
 615 234 l 1
 615 138 l 1
 498 138 l 1
 498 1 l 1
 402 1 l 1
 402 138 l 1
 238 138 l 1
 238 1 l 1
 142 1 l 1
 142 138 l 1
 25 138 l 1
 25 234 l 1
 142 234 l 1
 142 408 l 1
 25 408 l 1
 25 504 l 1
 142 504 l 1
 142 641 l 1
 238 641 l 1
 238 504 l 1
 402 504 l 1
 402 641 l 1
 498 641 l 1
 498 504 l 1
 615 504 l 1
 615 408 l 1
 498 408 l 1
EndSplineSet
Validated: 1
EndChar
StartChar: dollar
Encoding: 36 36 713
Width: 486
VWidth: -63
Flags: W
HStem: -8 106<140.172 195 281 329.164> 266 108<281 332.146> 495 21G<366.5 394.833> 555 106<281 337.203>
VStem: 25 105<407.465 519.029> 195 86<-90 -5.16221 100 266 382 551 659.101 750> 361 100<130.889 238.123>
LayerCount: 2
Fore
SplineSet
281 661 m 1
 368 654 401 624 449 567 c 1
 374 495 l 1
 359 515 340 545 281 555 c 1
 281 374 l 1
 374 363 461 317 461 187 c 3
 461 84 390 11 281 -6 c 1
 281 -90 l 1
 195 -90 l 1
 195 -8 l 1
 115 1 64 41 25 86 c 1
 100 158 l 1
 120 132 148 106 195 98 c 1
 195 273 l 1
 103 284 25 339 25 468 c 3
 25 548 89 642 195 660 c 1
 195 750 l 1
 281 750 l 1
 281 661 l 1
281 100 m 1
 333 111 361 142 361 187 c 3
 361 231 328 256 281 266 c 1
 281 100 l 1
195 551 m 1
 152 535 130 494 130 467 c 3
 130 426 151 394 195 382 c 1
 195 551 l 1
EndSplineSet
Validated: 1
EndChar
StartChar: percent
Encoding: 37 37 712
Width: 676
VWidth: 0
Flags: W
HStem: -20 78<441.32 548.68> 214 78<441.32 548.68> 337 78<127.32 234.68> 571 78<127.32 234.68>
VStem: 25 78<439.32 546.68> 259 78<439.32 546.68> 339 78<82.3197 189.68> 573 78<82.3197 189.68>
LayerCount: 2
Fore
SplineSet
259 493 m 0
 259 536 224 571 181 571 c 0
 138 571 103 536 103 493 c 0
 103 450 138 415 181 415 c 0
 224 415 259 450 259 493 c 0
337 493 m 0
 337 407 267 337 181 337 c 0
 95 337 25 407 25 493 c 0
 25 579 95 649 181 649 c 0
 267 649 337 579 337 493 c 0
417 136 m 0
 417 93 452 58 495 58 c 0
 538 58 573 93 573 136 c 0
 573 179 538 214 495 214 c 0
 452 214 417 179 417 136 c 0
339 136 m 0
 339 222 409 292 495 292 c 0
 581 292 651 222 651 136 c 0
 651 50 581 -20 495 -20 c 0
 409 -20 339 50 339 136 c 0
26 61 m 1
 592 627 l 1
 650 569 l 1
 84 3 l 1
 26 61 l 1
EndSplineSet
Validated: 1
EndChar
StartChar: ampersand
Encoding: 38 38 717
Width: 586
VWidth: 0
Flags: HW
LayerCount: 2
Fore
SplineSet
199.250976562 395.293945312 m 1
 225.373046875 421.3515625 l 2
 263.250976562 459.729492188 274.006835938 485.500976562 274.006835938 509.123046875 c 3
 274.006835938 553.135742188 243.06640625 579.333007812 201.740234375 579.333007812 c 3
 160.413085938 579.333007812 129.473632812 553.134765625 129.473632812 509.123046875 c 3
 129.473632812 483.62890625 139.778613495 463.050200618 182.943359375 413.873046875 c 2
 199.250976562 395.293945312 l 1
122.869140625 353.763671875 m 2
 55.0934106081 430.311907695 37.03125 464.24609375 37.03125 509.240234375 c 3
 37.03125 593.5546875 98.857421875 665.751953125 201.290039062 665.751953125 c 3
 312.876953125 665.751953125 365.548828125 593.215820312 365.548828125 509.240234375 c 3
 365.548828125 466.481445312 348.829101562 422.337890625 286.912109375 361.0234375 c 2
 256.02734375 330.612304688 l 1
 359.842773438 212.340820312 l 1
 445.80859375 302.23046875 l 1
 465.838795855 282.656822996 485.868294118 263.082454569 505.901367188 243.51171875 c 1
 415.768554688 148.626953125 l 1
 546.139648438 0.1025390625 l 1
 435.989257812 0.1025390625 l 1
 358.172851562 87.994140625 l 1
 314.643554688 42.169921875 l 2
 273.04296875 -0.05859375 234.799804688 -12.697265625 183.248046875 -12.697265625 c 3
 89.5888671875 -12.697265625 19.38671875 57.345703125 19.38671875 143.1015625 c 3
 19.38671875 184.786132812 40.7978515625 237.212890625 83.349609375 279.677734375 c 2
 139.166015625 335.357421875 l 1
 122.869140625 353.763671875 l 2
301.807617188 151.657226562 m 1
 195.838867188 271.346679688 l 1
 145.796875 222.072265625 l 2
 117.567382812 194.19921875 106.676757812 174.85546875 106.676757812 146.044921875 c 3
 106.676757812 101.739257812 139.953125 65.0634765625 185.435546875 65.0634765625 c 3
 217.010742188 65.0634765625 236.771484375 83.263671875 251.975585938 99.55078125 c 2
 301.807617188 151.657226562 l 1
EndSplineSet
EndChar
StartChar: quotesingle
Encoding: 39 39 32
Width: 150
VWidth: 0
Flags: HW
LayerCount: 2
Fore
SplineSet
125 750 m 0
 125 712 109 694 87 665 c 28
 82 658 68 658 63 665 c 28
 41 694 25 712 25 750 c 0
 25 777 48 800 75 800 c 0
 102 800 125 777 125 750 c 0
EndSplineSet
Validated: 1
EndChar
StartChar: parenleft
Encoding: 40 40 61
Width: 322
VWidth: -39
Flags: HW
LayerCount: 2
Fore
SplineSet
25 326 m 3
 25 498 74 645 231 802 c 5
 297 734 l 1
 202 639 113 522 113 326 c 3
 113 130 202 11 297 -84 c 1
 231 -152 l 1
 74 5 25 154 25 326 c 3
EndSplineSet
Validated: 1
EndChar
StartChar: parenright
Encoding: 41 41 60
Width: 322
VWidth: -39
Flags: W
VStem: 209 88<170.476 481.08>
LayerCount: 2
Fore
SplineSet
297 326 m 3
 297 154 248 5 91 -152 c 1
 25 -84 l 1
 120 11 209 130 209 326 c 3
 209 522 120 639 25 734 c 1
 91 802 l 5
 248 645 297 498 297 326 c 3
EndSplineSet
Validated: 1
EndChar
StartChar: asterisk
Encoding: 42 42 49
Width: 368
VWidth: 0
Flags: W
HStem: 625 50<25.2188 124 244 342.781>
VStem: 159 50<491.219 590 710 808.781>
LayerCount: 2
Fore
SplineSet
159 775 m 2
 159 797 172 809 184 809 c 0
 196 809 209 797 209 775 c 2
 209 710 l 1
 255 756 l 2
 264 765 272 769 280 769 c 0
 286 769 292 766 296 762 c 0
 300 758 303 752 303 746 c 0
 303 738 299 730 290 721 c 2
 244 675 l 1
 309 675 l 2
 331 675 343 662 343 650 c 0
 343 638 331 625 309 625 c 2
 244 625 l 1
 290 579 l 2
 299 570 303 562 303 554 c 0
 303 548 300 542 296 538 c 0
 292 534 286 531 280 531 c 0
 272 531 264 535 255 544 c 2
 209 590 l 1
 209 525 l 2
 209 503 196 491 184 491 c 0
 172 491 159 503 159 525 c 2
 159 590 l 1
 113 544 l 2
 104 535 96 531 88 531 c 0
 82 531 76 534 72 538 c 0
 68 542 65 548 65 554 c 0
 65 562 69 570 78 579 c 2
 124 625 l 1
 59 625 l 2
 37 625 25 638 25 650 c 0
 25 662 37 675 59 675 c 2
 124 675 l 1
 78 721 l 2
 69 730 65 738 65 746 c 0
 65 752 68 758 72 762 c 0
 76 766 82 769 88 769 c 0
 96 769 104 765 113 756 c 2
 159 710 l 1
 159 775 l 2
EndSplineSet
Validated: 1
EndChar
StartChar: plus
Encoding: 43 43 46
Width: 350
VWidth: 0
Flags: W
HStem: 300 100<25 125 225 325> 480 20G<125 225>
VStem: 125 100<200 300 400 500>
LayerCount: 2
Fore
SplineSet
125 400 m 1
 125 500 l 1
 225 500 l 1
 225 400 l 1
 325 400 l 1
 325 300 l 1
 225 300 l 1
 225 200 l 1
 125 200 l 1
 125 300 l 1
 25 300 l 1
 25 400 l 1
 125 400 l 1
EndSplineSet
Validated: 1
EndChar
StartChar: comma
Encoding: 44 44 31
Width: 150
VWidth: 0
Flags: W
HStem: 0 100<33.7012 75>
VStem: 75 50<-20.1879 0>
LayerCount: 2
Fore
SplineSet
69 -17 m 4
 73 -13 75 -10 75 0 c 5
 48 0 25 23 25 50 c 7
 25 77 48 100 75 100 c 7
 102 100 125 77 125 50 c 7
 125 -11 110 -12 86 -36 c 4
 82 -40 77 -42 73 -42 c 7
 67 -42 62 -37 62 -31 c 7
 62 -27 64 -22 69 -17 c 4
EndSplineSet
Validated: 1
EndChar
StartChar: hyphen
Encoding: 45 45 41
Width: 350
VWidth: 0
Flags: W
HStem: 300 100<25 325>
VStem: 25 300<300 400>
LayerCount: 2
Fore
SplineSet
25 400 m 1
 325 400 l 1
 325 300 l 1
 25 300 l 1
 25 400 l 1
EndSplineSet
Validated: 1
EndChar
StartChar: period
Encoding: 46 46 28
Width: 150
VWidth: 0
Flags: W
HStem: 0 100<33.7012 116.299>
VStem: 25 100<8.70117 91.2988>
LayerCount: 2
Fore
SplineSet
25 50 m 3
 25 77 48 100 75 100 c 3
 102 100 125 77 125 50 c 3
 125 23 102 0 75 0 c 7
 48 0 25 23 25 50 c 3
EndSplineSet
Validated: 1
EndChar
StartChar: slash
Encoding: 47 47 56
Width: 413
VWidth: 0
Flags: W
HStem: 0 21G<25 129.215> 630 20G<283.785 388>
LayerCount: 2
Fore
SplineSet
121 0 m 1
 25 0 l 1
 292 650 l 1
 388 650 l 1
 121 0 l 1
EndSplineSet
Validated: 1
EndChar
StartChar: zero
Encoding: 48 48 72
Width: 534
VWidth: 0
Flags: W
HStem: 0 96<202.381 331.619> 564 96<202.381 331.619>
VStem: 50 96<150.98 509.02> 388 96<150.98 509.02>
LayerCount: 2
Fore
SplineSet
484 445 m 2
 484 215 l 2
 484 96 387 0 267 0 c 3
 147 0 50 96 50 215 c 2
 50 445 l 2
 50 564 147 660 267 660 c 3
 387 660 484 564 484 445 c 2
388 445 m 2
 388 505 327 564 267 564 c 3
 207 564 146 505 146 445 c 2
 146 215 l 2
 146 155 207 96 267 96 c 3
 327 96 388 155 388 215 c 2
 388 445 l 2
EndSplineSet
Validated: 1
EndChar
StartChar: one
Encoding: 49 49 71
Width: 534
VWidth: 0
Flags: W
HStem: 0 21G<262 368> 554 96<166 262>
VStem: 262 106<0 554>
LayerCount: 2
Fore
SplineSet
262 554 m 1
 166 554 l 1
 166 650 l 1
 262 650 l 1
 313 650 l 1
 368 650 l 1
 368 0 l 1
 262 0 l 1
 262 554 l 1
EndSplineSet
Validated: 1
EndChar
StartChar: two
Encoding: 50 50 74
Width: 534
VWidth: 0
Flags: HW
LayerCount: 2
Fore
SplineSet
50 445 m 1
 50 564 147 660 267 660 c 3
 387 660 484 564 484 445 c 3
 484 367 428 295 399 264 c 2
 246 96 l 1
 484 96 l 1
 484 0 l 1
 40 0 l 1
 338 325 l 2
 356 348 388 396 388 445 c 3
 388 505 327 564 267 564 c 3
 207 564 146 505 146 445 c 1
 50 445 l 1
EndSplineSet
Validated: 1
EndChar
StartChar: three
Encoding: 51 51 75
Width: 534
VWidth: 0
Flags: W
HStem: -15 96<197.674 336.326> 564 96<197.584 336.416>
VStem: 60 96<121.446 184> 70 96<472 533.539> 368 96<407.868 533.938> 378 96<121.241 243.718>
LayerCount: 2
Fore
SplineSet
267 368 m 1xe4
 326 387 368 404 368 472 c 0
 368 532 327 564 267 564 c 0
 207 564 166 532 166 472 c 1
 70 472 l 1
 70 591 147 660 267 660 c 0
 387 660 464 591 464 472 c 0xd8
 464 401 443 358 389 329 c 1
 448 299 474 257 474 184 c 0
 474 65 387 -15 267 -15 c 0
 147 -15 60 65 60 184 c 1
 156 184 l 1
 156 124 207 81 267 81 c 0
 327 81 378 124 378 184 c 0
 378 252 325 269 267 288 c 1
 267 368 l 1xe4
EndSplineSet
Validated: 1
EndChar
StartChar: four
Encoding: 52 52 76
Width: 534
VWidth: 0
Flags: W
HStem: 0 21G<256 362> 206 94<146 256 362 484> 480 20G<256 362> 630 20G<50 146>
VStem: 50 96<300 650> 256 106<0 206 300 500>
LayerCount: 2
Fore
SplineSet
50 650 m 1
 146 650 l 1
 146 300 l 1
 256 300 l 1
 256 500 l 1
 362 500 l 1
 362 300 l 1
 484 300 l 1
 484 206 l 1
 362 206 l 1
 362 0 l 1
 256 0 l 1
 256 206 l 1
 50 206 l 1
 50 650 l 1
EndSplineSet
Validated: 1
EndChar
StartChar: five
Encoding: 53 53 77
Width: 534
VWidth: 0
Flags: W
HStem: -15 96<202.381 331.619> 319 96<171 331.586> 564 96<201 414>
VStem: 50 96<135.98 200> 388 96<135.975 264.025>
LayerCount: 2
Fore
SplineSet
171 415 m 1
 267 415 l 2
 387 415 484 319 484 200 c 0
 484 81 387 -15 267 -15 c 0
 147 -15 50 81 50 200 c 1
 146 200 l 1
 146 140 207 81 267 81 c 0
 327 81 388 140 388 200 c 0
 388 260 327 319 267 319 c 2
 60 319 l 1
 130 660 l 1
 414 660 l 1
 434 564 l 1
 201 564 l 1
 171 415 l 1
EndSplineSet
Validated: 1
EndChar
StartChar: six
Encoding: 54 54 78
Width: 534
VWidth: 70
Flags: HW
LayerCount: 2
Fore
SplineSet
484 205 m 0
 484 86 387 -10 267 -10 c 0
 147 -10 50 86 50 205 c 0
 50 235 56 264 67 290 c 2
 233 650 l 1
 332 650 l 1
 220 414 l 1
 236 418 250 420 267 420 c 0
 387 420 484 324 484 205 c 0
146 205 m 0
 146 145 207 86 267 86 c 0
 327 86 388 145 388 205 c 0
 388 265 327 324 267 324 c 0
 207 324 146 265 146 205 c 0
EndSplineSet
Validated: 1
EndChar
StartChar: seven
Encoding: 55 55 73
Width: 534
VWidth: 0
Flags: HW
LayerCount: 2
Fore
SplineSet
217 0 m 1
 111 0 l 5
 339 555 l 5
 50 555 l 1
 50 650 l 1
 484 650 l 1
 217 0 l 1
EndSplineSet
EndChar
StartChar: eight
Encoding: 56 56 79
Width: 534
VWidth: 0
Flags: W
HStem: -15 96<197.674 336.326> 574 86<199.778 334.222>
VStem: 60 96<121.241 243.157> 80 86<418.768 539.521> 368 86<418.58 539.521> 378 96<121.241 243.157>
LayerCount: 2
Fore
SplineSet
267 294 m 1xe4
 211 276 156 248 156 184 c 3
 156 124 207 81 267 81 c 3
 327 81 378 124 378 184 c 3
 378 248 323 276 267 294 c 1xe4
284 384 m 2
 338 401 368 426 368 482 c 3
 368 538 323 574 267 574 c 3
 211 574 166 538 166 482 c 3xd8
 166 426 195 402 250 384 c 2
 267 378 l 25
 284 384 l 2
166 336 m 1
 115 366 80 408 80 482 c 3
 80 601 147 660 267 660 c 3
 387 660 454 601 454 482 c 3
 454 408 419 366 368 336 c 1xd8
 428 303 474 257 474 184 c 3
 474 65 387 -15 267 -15 c 3
 147 -15 60 65 60 184 c 3xe4
 60 257 106 303 166 336 c 1
EndSplineSet
Validated: 1
EndChar
StartChar: nine
Encoding: 57 57 80
Width: 534
VWidth: 70
Flags: HW
LayerCount: 2
Fore
SplineSet
50 445 m 0
 50 564 147 660 267 660 c 0
 387 660 484 564 484 445 c 0
 484 415 478 386 467 360 c 2
 301 0 l 1
 202 0 l 1
 314 236 l 5
 298 232 284 230 267 230 c 0
 147 230 50 326 50 445 c 0
388 445 m 0
 388 505 327 564 267 564 c 0
 207 564 146 505 146 445 c 0
 146 385 207 326 267 326 c 0
 327 326 388 385 388 445 c 0
EndSplineSet
EndChar
StartChar: colon
Encoding: 58 58 29
Width: 150
VWidth: 0
Flags: W
HStem: 100 100<33.7012 116.299> 300 100<33.7012 116.299>
VStem: 25 100<108.701 191.299 308.701 391.299>
LayerCount: 2
Fore
SplineSet
25 350 m 3
 25 377 48 400 75 400 c 3
 102 400 125 377 125 350 c 3
 125 323 102 300 75 300 c 3
 48 300 25 323 25 350 c 3
25 150 m 3
 25 177 48 200 75 200 c 3
 102 200 125 177 125 150 c 3
 125 123 102 100 75 100 c 3
 48 100 25 123 25 150 c 3
EndSplineSet
Validated: 1
EndChar
StartChar: semicolon
Encoding: 59 59 30
Width: 150
VWidth: 0
Flags: HW
LayerCount: 2
Fore
SplineSet
25 250 m 7
 25 275 50 300 75 300 c 7
 100 300 125 275 125 250 c 7
 125 225 100 200 75 200 c 7
 50 200 25 225 25 250 c 7
25 50 m 3
 25 77 48 100 75 100 c 3
 102 100 125 77 125 50 c 3
 125 -11 117 -24 77 -51 c 1
 63 -35 l 1
 71 -27 75 -19 75 0 c 1
 48 0 25 23 25 50 c 3
EndSplineSet
Validated: 1
EndChar
StartChar: less
Encoding: 60 60 69
Width: 512
VWidth: 0
Flags: HW
LayerCount: 2
Fore
SplineSet
6 350 m 5
 506 581 l 5
 506 483 l 5
 216 350 l 5
 506 222 l 5
 506 119 l 5
 6 350 l 5
EndSplineSet
EndChar
StartChar: equal
Encoding: 61 61 66
Width: 350
VWidth: 0
Flags: HW
LayerCount: 2
Fore
SplineSet
25 475 m 1
 325 475 l 1
 325 375 l 1
 25 375 l 1
 25 475 l 1
25 325 m 1
 325 325 l 1
 325 225 l 1
 25 225 l 1
 25 325 l 1
EndSplineSet
Validated: 1
EndChar
StartChar: greater
Encoding: 62 62 70
Width: 512
VWidth: 0
Flags: W
LayerCount: 2
Fore
SplineSet
506 350 m 5
 6 119 l 5
 6 217 l 5
 296 350 l 5
 6 478 l 5
 6 581 l 5
 506 350 l 5
EndSplineSet
Validated: 1
EndChar
StartChar: question
Encoding: 63 63 43
Width: 450
VWidth: 0
Flags: W
HStem: 0 100<183.701 266.299> 500 21G<61.5 88.5> 650 83<158.586 294.138>
VStem: 25 100<508.701 617.798> 175 100<8.70117 91.2988 208.701 349.009> 325 100<500.919 617.798>
CounterMasks: 1 1c
LayerCount: 2
Fore
SplineSet
25 570 m 2
 25 669 125 733 225 733 c 3
 325 733 425 669 425 570 c 2
 425 550 l 2
 425 445 275 407 275 263 c 2
 275 250 l 2
 275 223 252 200 225 200 c 0
 198 200 175 223 175 250 c 2
 175 263 l 2
 175 403 325 483 325 550 c 2
 325 570 l 2
 325 618 276 650 226 650 c 3
 176 650 125 618 125 570 c 2
 125 550 l 2
 125 523 102 500 75 500 c 0
 48 500 25 523 25 550 c 2
 25 570 l 2
175 50 m 3
 175 77 198 100 225 100 c 3
 252 100 275 77 275 50 c 3
 275 23 252 0 225 0 c 3
 198 0 175 23 175 50 c 3
EndSplineSet
Validated: 1
EndChar
StartChar: A
Encoding: 65 65 55
Width: 633
VWidth: 0
Flags: HW
LayerCount: 2
Fore
SplineSet
317 650 m 1
 584 0 l 1
 488 0 l 1
 422 164 l 1
 208 164 l 1
 140 0 l 1
 50 0 l 1
 317 650 l 1
384 260 m 1
 317 428 l 1
 248 260 l 1
 384 260 l 1
EndSplineSet
Validated: 1
EndChar
StartChar: B
Encoding: 66 66 415
Width: 462
VWidth: 0
Flags: HW
LayerCount: 2
Fore
SplineSet
455 189 m 3
 455 69 394 0 282 0 c 2
 50 0 l 1
 50 650 l 1
 282 650 l 2
 386 650 458 582.00390625 458 460 c 3
 458 362.994845498 407 335 370 324 c 1
 407 315 455 290 455 189 c 3
362 460 m 3
 362 506.010868281 332 544 282 544 c 2
 156 544 l 1
 156 375 l 1
 282 375 l 2
 332 375 362 415 362 460 c 3
366 189 m 3
 366 236 332 272 282 272 c 2
 156 272 l 1
 156 106 l 1
 282 106 l 2
 328 106 366 142.470703125 366 189 c 3
EndSplineSet
EndChar
StartChar: C
Encoding: 67 67 707
Width: 610
VWidth: -74
Flags: HW
LayerCount: 2
Fore
SplineSet
25 321 m 0
 25 504 171 650 351 650 c 0
 443 650 526 613 585 551 c 1
 515 481 l 1
 474 523 417 549 353 549 c 0
 228 549 127 448 127 323 c 0
 127 198 228 97 353 97 c 0
 414 97 469 121 510 160 c 1
 582 88 l 1
 523 28 441 -9 351 -9 c 0
 171 -9 25 138 25 321 c 0
EndSplineSet
Validated: 1
EndChar
StartChar: D
Encoding: 68 68 706
Width: 512
VWidth: -74
Flags: W
HStem: -9 106<162 258.833> 549 101<162 258.833>
VStem: 50 112<97 549> 390 97<230.154 417.701>
LayerCount: 2
Fore
SplineSet
162 650 m 2
 342 650 487 504 487 321 c 0
 487 138 342 -9 162 -9 c 2
 50 -9 l 1
 50 650 l 1
 162 650 l 2
162 97 m 1
 287 97 390 198 390 323 c 0
 390 448 287 549 162 549 c 1
 162 97 l 1
EndSplineSet
Validated: 1
EndChar
StartChar: E
Encoding: 69 69 128
Width: 462
VWidth: 0
Flags: W
HStem: 0 106<156 412> 272 103<156 412> 544 106<156 412>
VStem: 50 362<0 106 272 375 544 650> 50 106<106 272 375 544>
LayerCount: 2
Fore
SplineSet
412 106 m 1xf0
 412 0 l 1
 50 0 l 1
 50 650 l 1
 412 650 l 1
 412 544 l 1xf0
 156 544 l 1
 156 375 l 1xe8
 412 375 l 1
 412 272 l 1xf0
 156 272 l 1
 156 106 l 1xe8
 412 106 l 1xf0
EndSplineSet
Validated: 1
EndChar
StartChar: F
Encoding: 70 70 129
Width: 462
VWidth: 0
Flags: W
HStem: 0 21G<50 156> 272 103<156 412> 544 106<156 412>
VStem: 50 106<0 272 375 544>
LayerCount: 2
Fore
SplineSet
412 544 m 1
 156 544 l 1
 156 375 l 1
 412 375 l 1
 412 272 l 1
 156 272 l 1
 156 0 l 1
 50 0 l 1
 50 650 l 1
 412 650 l 1
 412 544 l 1
EndSplineSet
Validated: 1
EndChar
StartChar: G
Encoding: 71 71 710
Width: 701
VWidth: -74
Flags: HW
LayerCount: 2
Fore
SplineSet
582 88 m 1
 529 34 451 -9 351 -9 c 3
 171 -9 25 138 25 321 c 3
 25 504 171 650 351 650 c 3
 443 650 526 613 585 551 c 1
 515 481 l 1
 474 523 417 549 353 549 c 3
 228 549 127 448 127 323 c 3
 127 198 228 97 353 97 c 3
 460 97 550 172 573 272 c 1
 420 272 l 1
 420 375 l 1
 672 375 l 1
 675 357 676 339 676 321 c 3
 676 220 639 146 582 88 c 1
 582 88 l 1
EndSplineSet
Validated: 1
EndChar
StartChar: H
Encoding: 72 72 127
Width: 562
VWidth: 0
Flags: W
HStem: 0 21G<50 156 406 512> 272 103<156 406> 630 20G<50 156 406 512>
VStem: 50 106<0 272 375 650> 406 106<0 272 375 650>
LayerCount: 2
Fore
SplineSet
406 272 m 1
 156 272 l 1
 156 0 l 1
 50 0 l 1
 50 650 l 1
 156 650 l 1
 156 375 l 1
 406 375 l 1
 406 650 l 1
 512 650 l 1
 512 0 l 1
 406 0 l 1
 406 272 l 1
EndSplineSet
Validated: 1
EndChar
StartChar: I
Encoding: 73 73 67
Width: 384
VWidth: 0
Flags: HW
LayerCount: 2
Fore
SplineSet
334 0 m 1
 50 0 l 1
 50 106 l 1
 139 106 l 1
 139 544 l 1
 50 544 l 1
 50 650 l 1
 334 650 l 1
 334 544 l 1
 245 544 l 1
 245 106 l 1
 334 106 l 1
 334 0 l 1
EndSplineSet
Validated: 1
EndChar
StartChar: J
Encoding: 74 74 711
Width: 339
VWidth: 0
Flags: HW
LayerCount: 2
Fore
SplineSet
25 4 m 0
 46 -7 73 -10 101 -10 c 3
 187 -10 289 63 289 200 c 2
 289 650 l 1
 183 650 l 1
 183 200 l 2
 183 132 145 82 102 82 c 3
 88 82 73 83 59 90 c 0
 25 4 l 0
EndSplineSet
EndChar
StartChar: K
Encoding: 75 75 411
Width: 525
VWidth: 0
Flags: W
HStem: 0 21G<50 146 341.2 474> 630 20G<50 146 335.414 474>
VStem: 50 96<0 325 329 650>
LayerCount: 2
Fore
SplineSet
146 0 m 1
 50 0 l 1
 50 650 l 1
 146 650 l 1
 146 329 l 1
 348 650 l 1
 474 650 l 1
 269 323 l 1
 474 0 l 1
 354 0 l 1
 146 325 l 1
 146 0 l 1
EndSplineSet
Validated: 1
EndChar
StartChar: L
Encoding: 76 76 68
Width: 562
VWidth: 0
Flags: HW
LayerCount: 2
Fore
SplineSet
412 106 m 1
 412 0 l 5
 50 0 l 1
 50 650 l 1
 156 650 l 1
 156 106 l 1
 412 106 l 1
EndSplineSet
EndChar
StartChar: M
Encoding: 77 77 414
Width: 670
VWidth: 0
Flags: W
HStem: 0 21G<50 156 514 620> 630 20G<50 168.74 501.26 620>
VStem: 50 106<0 461> 514 106<0 461>
LayerCount: 2
Fore
SplineSet
335 180 m 1
 156 461 l 1
 156 0 l 1
 50 0 l 1
 50 650 l 1
 156 650 l 1
 335 369 l 1
 514 650 l 1
 620 650 l 1
 620 0 l 1
 514 0 l 1
 514 461 l 1
 335 180 l 1
EndSplineSet
Validated: 1
EndChar
StartChar: N
Encoding: 78 78 413
Width: 606
VWidth: 0
Flags: W
HStem: 0 21G<50 156 437.245 556> 630 20G<50 168.755 450 556>
VStem: 50 106<0 461> 450 106<189 650>
LayerCount: 2
Fore
SplineSet
450 189 m 1
 450 650 l 1
 556 650 l 1
 556 0 l 1
 450 0 l 1
 156 461 l 1
 156 0 l 1
 50 0 l 1
 50 650 l 1
 156 650 l 1
 450 189 l 1
EndSplineSet
Validated: 1
EndChar
StartChar: O
Encoding: 79 79 412
Width: 701
VWidth: -74
Flags: HW
LayerCount: 2
Fore
SplineSet
127 323 m 0
 127 198 228 97 353 97 c 0
 478 97 579 198 579 323 c 0
 579 448 478 549 353 549 c 0
 228 549 127 448 127 323 c 0
25 321 m 0
 25 504 171 650 351 650 c 0
 531 650 676 504 676 321 c 0
 676 138 531 -9 351 -9 c 0
 171 -9 25 138 25 321 c 0
EndSplineSet
EndChar
StartChar: P
Encoding: 80 80 708
Width: 483
VWidth: 0
Flags: W
HStem: 0 21G<50 156> 272 103<156 336.719> 544 106<156 336.861>
VStem: 50 106<0 272 375 544> 362 96<401.214 518.65>
LayerCount: 2
Fore
SplineSet
282 272 m 2
 156 272 l 1
 156 0 l 1
 50 0 l 1
 50 650 l 1
 282 650 l 2
 386 650 458 582 458 460 c 3
 458 350 375 272 282 272 c 2
362 460 m 3
 362 506 332 544 282 544 c 2
 156 544 l 1
 156 375 l 1
 282 375 l 2
 332 375 362 415 362 460 c 3
EndSplineSet
Validated: 1
EndChar
StartChar: Q
Encoding: 81 81 705
Width: 701
VWidth: -74
Flags: HW
LayerCount: 2
Fore
SplineSet
25 321 m 0
 25 504 171 650 351 650 c 0
 531 650 676 504 676 321 c 0
 676 249 653 183 615 129 c 1
 671 73 l 1
 596 -2 l 1
 541 53 l 1
 488 14 422 -9 351 -9 c 0
 171 -9 25 138 25 321 c 0
127 323 m 0
 127 198 228 97 353 97 c 0
 394 97 434 108 467 127 c 1
 419 175 l 1
 494 250 l 1
 543 201 l 1
 566 236 579 278 579 323 c 0
 579 448 478 549 353 549 c 0
 228 549 127 448 127 323 c 0
EndSplineSet
Validated: 1
EndChar
StartChar: R
Encoding: 82 82 709
Width: 508
VWidth: 0
Flags: W
HStem: 0 21G<50 156 343.765 458> 272 103<156 240> 544 106<156 336.861>
VStem: 50 106<0 272 375 544> 362 96<400.102 518.65>
LayerCount: 2
Fore
SplineSet
362 460 m 0
 362 506 332 544 282 544 c 2
 156 544 l 1
 156 375 l 1
 282 375 l 2
 332 375 362 415 362 460 c 0
240 272 m 1
 156 272 l 1
 156 0 l 1
 50 0 l 1
 50 650 l 1
 282 650 l 2
 386 650 458 582 458 460 c 0
 458 374 408 308 342 283 c 1
 458 0 l 1
 352 0 l 1
 240 272 l 1
EndSplineSet
Validated: 1
EndChar
StartChar: S
Encoding: 83 83 416
Width: 491
VWidth: -63
Flags: HW
LayerCount: 2
Fore
SplineSet
238 271 m 3
 130 271 30 322 30 468 c 3
 30 557 109 663 238 663 c 3
 362 663 398 633 454 567 c 1
 379 495 l 1
 361 519 337 558 241 558 c 3
 170 558 135 502 135 467 c 3
 135 415 169 377 238 377 c 3
 346 377 466 339 466 187 c 3
 466 69 372 -10 236 -10 c 3
 135 -10 74 35 30 86 c 1
 105 158 l 1
 129 126 166 95 234 95 c 3
 318 95 366 128 366 187 c 3
 366 245 309 271 238 271 c 3
EndSplineSet
EndChar
StartChar: T
Encoding: 84 84 64
Width: 552
VWidth: 0
Flags: W
HStem: 0 21G<228 324> 554 96<50 228 324 502>
VStem: 228 96<0 554>
LayerCount: 2
Fore
SplineSet
502 554 m 1
 324 554 l 1
 324 0 l 1
 228 0 l 1
 228 554 l 1
 50 554 l 1
 50 650 l 1
 502 650 l 1
 502 554 l 1
EndSplineSet
Validated: 1
EndChar
StartChar: U
Encoding: 85 85 130
Width: 562
VWidth: 0
Flags: W
HStem: -10 96<204.601 361.463> 630 20G<50 156 406 512>
VStem: 50 106<136.06 650> 406 106<131.091 650>
LayerCount: 2
Fore
SplineSet
281 -10 m 3
 161 -10 50 80 50 200 c 2
 50 650 l 1
 156 650 l 1
 156 200 l 2
 156 198 161 86 281 86 c 3
 401 86 406 182 406 200 c 2
 406 650 l 1
 512 650 l 1
 512 200 l 2
 512 80 401 -10 281 -10 c 3
EndSplineSet
Validated: 1
EndChar
StartChar: V
Encoding: 86 86 50
Width: 622
VWidth: 0
Flags: W
HStem: 0 21G<302.785 319.215> 630 20G<44 142.271 474.009 578>
LayerCount: 2
Fore
SplineSet
311 0 m 1
 44 650 l 1
 134 650 l 1
 311 222 l 5
 482 650 l 1
 578 650 l 1
 311 0 l 1
EndSplineSet
Validated: 1
EndChar
StartChar: W
Encoding: 87 87 51
Width: 822
VWidth: 0
Flags: HW
LayerCount: 2
Fore
SplineSet
244 650 m 1
 334 650 l 1
 409 468 l 1
 482 650 l 1
 578 650 l 1
 456 354 l 1
 511 222 l 1
 682 650 l 1
 778 650 l 1
 511 -0 l 1
 411 243 l 1
 311 -0 l 1
 44 650 l 1
 134 650 l 1
 311 222 l 1
 365 356 l 1
 244 650 l 1
EndSplineSet
Validated: 1
EndChar
StartChar: X
Encoding: 88 88 63
Width: 633
VWidth: 0
Flags: HW
LayerCount: 2
Fore
SplineSet
50 0 m 1
 255 327 l 1
 50 650 l 1
 170 650 l 1
 315 422 l 1
 458 650 l 1
 584 650 l 1
 379 323 l 1
 584 0 l 1
 464 0 l 1
 319 228 l 1
 176 0 l 1
 50 0 l 1
EndSplineSet
EndChar
StartChar: Y
Encoding: 89 89 65
Width: 562
VWidth: 0
Flags: HW
LayerCount: 2
Fore
SplineSet
329 254 m 1
 329 0 l 1
 233 0 l 1
 233 254 l 1
 50 650 l 1
 148 650 l 1
 281 356 l 1
 409 650 l 1
 512 650 l 1
 329 254 l 1
EndSplineSet
EndChar
StartChar: Z
Encoding: 90 90 62
Width: 530
VWidth: 0
Flags: W
HStem: 0 96<203 480> 554 96<50 318>
LayerCount: 2
Fore
SplineSet
50 650 m 1
 484 650 l 1
 203 96 l 1
 480 96 l 1
 480 0 l 1
 46 0 l 5
 318 554 l 1
 50 554 l 1
 50 650 l 1
EndSplineSet
Validated: 1
EndChar
StartChar: bracketleft
Encoding: 91 91 58
Width: 290
VWidth: 0
Flags: HW
LayerCount: 2
Fore
SplineSet
25 -150 m 1
 25 800 l 1
 265 800 l 1
 265 704 l 1
 121 704 l 1
 121 -54 l 1
 265 -54 l 1
 265 -150 l 1
 25 -150 l 1
EndSplineSet
Validated: 1
EndChar
StartChar: backslash
Encoding: 92 92 57
Width: 413
VWidth: 0
Flags: W
HStem: 0 21G<283.785 388> 630 20G<25 129.215>
LayerCount: 2
Fore
SplineSet
292 0 m 1
 25 650 l 1
 121 650 l 1
 388 0 l 1
 292 0 l 1
EndSplineSet
Validated: 1
EndChar
StartChar: bracketright
Encoding: 93 93 59
Width: 290
VWidth: 0
Flags: W
HStem: -150 96<25 169> 704 96<25 169>
VStem: 25 240<-150 -54 704 800> 169 96<-54 704>
LayerCount: 2
Fore
SplineSet
265 -150 m 1xe0
 25 -150 l 1
 25 -54 l 1xe0
 169 -54 l 1
 169 704 l 1xd0
 25 704 l 1
 25 800 l 1
 265 800 l 1
 265 -150 l 1xe0
EndSplineSet
Validated: 1
EndChar
StartChar: asciicircum
Encoding: 94 94 695
Width: 319
VWidth: 0
Flags: HW
LayerCount: 2
Fore
SplineSet
160 787 m 0
 164 787 169 786 172 782 c 2
 284 636 l 2
 291 627 294 619 294 612 c 0
 294 600 285 591 273 591 c 0
 266 591 257 594 249 601 c 2
 160 670 l 1
 69 599 l 2
 60 592 52 589 45 589 c 0
 33 589 25 598 25 610 c 0
 25 617 27 626 34 634 c 2
 148 780 l 2
 151 784 155 787 160 787 c 0
EndSplineSet
Validated: 1
EndChar
StartChar: underscore
Encoding: 95 95 11
Width: 612
VWidth: 0
Flags: HW
LayerCount: 2
Fore
SplineSet
25 -23 m 5
 587 -23 l 5
 587 -97 l 5
 25 -97 l 5
 25 -23 l 5
EndSplineSet
Validated: 1
EndChar
StartChar: grave
Encoding: 96 96 52
Width: 197
VWidth: 0
Flags: W
HStem: 591 196
VStem: 0 197
LayerCount: 2
Fore
SplineSet
50 782 m 2
 53 786 58 787 62 787 c 3
 66 787 71 786 74 782 c 2
 187 636 l 2
 194 627 197 619 197 612 c 3
 197 600 188 591 176 591 c 3
 169 591 160 594 152 601 c 2
 6 714 l 2
 2 717 0 721 0 726 c 3
 0 729 1 733 4 736 c 2
 50 782 l 2
EndSplineSet
Validated: 1
EndChar
StartChar: a
Encoding: 97 97 3
Width: 581
VWidth: 0
Flags: W
HStem: -10 88<202.027 374.377> 0 21G<432 518> 440 84<202.027 373.295> 495 20G<432 518>
VStem: 25 82<172.126 343.874> 432 86<0 35 125.655 390.983 479 515>
LayerCount: 2
Fore
SplineSet
25 257 m 3x8c
 25 404 142 524 286 524 c 3xac
 340 524 391 507 432 479 c 1
 432 515 l 1
 518 515 l 1
 518 0 l 5
 432 0 l 5x5c
 432 35 l 1
 389 6 340 -10 286 -10 c 3
 142 -10 25 110 25 257 c 3x8c
107 259 m 3
 107 159 188 78 288 78 c 3
 347 78 399 107 432 150 c 1
 432 368 l 1
 398 412 346 440 288 440 c 3
 188 440 107 359 107 259 c 3
EndSplineSet
Validated: 1
EndChar
StartChar: b
Encoding: 98 98 4
Width: 562
VWidth: 0
Flags: HW
LayerCount: 2
Fore
SplineSet
537 248 m 0
 537 101 420 -19 276 -19 c 0
 222 -19 171 -2 130 26 c 1
 130 0 l 1
 130 -6 l 1
 124 -6 l 1
 50 -6 l 1
 44 -6 l 1
 44 0 l 1
 44 750 l 1
 44 756 l 1
 50 756 l 1
 124 756 l 1
 130 756 l 1
 130 750 l 1
 130 470 l 1
 173 499 222 515 276 515 c 0
 420 515 537 395 537 248 c 0
455 250 m 0
 455 350 374 431 274 431 c 0
 215 431 163 402 130 359 c 1
 130 141 l 1
 164 97 216 69 274 69 c 0
 374 69 455 150 455 250 c 0
EndSplineSet
Validated: 1
EndChar
StartChar: c
Encoding: 99 99 9
Width: 527
VWidth: 0
Flags: HW
LayerCount: 2
Fore
SplineSet
499 86 m 2
 454 29 383 -19 286 -19 c 3
 142 -19 25 101 25 248 c 3
 25 395 142 515 286 515 c 3
 370 515 432 478 492 415 c 2
 496 411 l 1
 437 352 l 1
 433 357 l 2
 400 402 347 431 288 431 c 3
 188 431 107 350 107 250 c 3
 107 150 188 69 288 69 c 3
 347 69 400 98 433 143 c 2
 437 148 l 1
 502 91 l 1
 499 86 l 2
EndSplineSet
EndChar
StartChar: d
Encoding: 100 100 5
Width: 581
VWidth: 0
Flags: HW
LayerCount: 2
Fore
SplineSet
25 257 m 3
 25 404 142 524 286 524 c 3
 340 524 391 507 432 479 c 1
 432 700 l 1
 518 700 l 1
 518 0 l 1
 432 0 l 1
 432 35 l 1
 389 6 340 -10 286 -10 c 3
 142 -10 25 110 25 257 c 3
107 259 m 3
 107 159 188 78 288 78 c 3
 347 78 399 107 432 150 c 1
 432 368 l 1
 398 412 346 440 288 440 c 3
 188 440 107 359 107 259 c 3
EndSplineSet
Validated: 1
EndChar
StartChar: e
Encoding: 101 101 10
Width: 572
VWidth: 0
Flags: HW
LayerCount: 2
Fore
SplineSet
113 204 m 1
 133 126 205 69 288 69 c 0
 331 69 413 84 450 129 c 2
 455 134 l 1
 459 129 l 1
 510 78 l 1
 514 74 l 1
 511 70 l 2
 457 3 352 -19 286 -19 c 0
 142 -19 25 101 25 248 c 0
 25 395 142 515 286 515 c 4
 430 515 547 395 547 248 c 0
 547 235 546 221 544 209 c 2
 543 204 l 1
 538 204 l 1
 113 204 l 1
111 289 m 1
 465 289 l 1
 446 371 374 431 288 431 c 0
 201 431 130 370 111 289 c 1
EndSplineSet
Validated: 1
EndChar
StartChar: f
Encoding: 102 102 12
Width: 332
VWidth: 0
Flags: W
HStem: 0 21G<111 196> 416 85<50 111 196 300> 612 88<207.391 280.878>
VStem: 111 85<0 416 501 604.599>
LayerCount: 2
Fore
SplineSet
307 686 m 1
 275 600 l 1
 263 607 253 612 240 612 c 7
 213 612 196 590 196 526 c 2
 196 501 l 1
 300 501 l 1
 300 416 l 1
 196 416 l 1
 196 0 l 1
 111 0 l 5
 111 416 l 5
 50 416 l 1
 50 501 l 1
 111 501 l 5
 111 526 l 6
 111 658 187 700 235 700 c 3
 261 700 286 696 307 686 c 1
EndSplineSet
Validated: 1
EndChar
StartChar: g
Encoding: 103 103 6
Width: 589
VWidth: 0
Flags: W
HStem: -208 84<169.93 356.132> -10 84<202.027 373.461> 436 88<202.027 373.295> 491 20G<432 526>
VStem: 25 82<170.126 341.874> 432 94<121.655 386.983 479 511>
LayerCount: 2
Fore
SplineSet
107 255 m 3xec
 107 155 188 74 288 74 c 3
 347 74 399 103 432 146 c 1
 432 364 l 1
 398 408 346 436 288 436 c 3
 188 436 107 355 107 255 c 3xec
25 257 m 3
 25 404 142 524 286 524 c 3xec
 340 524 391 507 432 479 c 1
 432 511 l 1
 526 511 l 1xdc
 526 47 l 2
 526 -100 417 -208 273 -208 c 3
 189 -208 97 -181 49 -117 c 1
 111 -56 l 1
 147 -101 205 -124 271 -124 c 3
 367 -124 427 -57 432 35 c 1
 390 6 340 -10 286 -10 c 3
 142 -10 25 110 25 257 c 3
EndSplineSet
Validated: 1
EndChar
StartChar: h
Encoding: 104 104 13
Width: 494
VWidth: 0
Flags: HW
LayerCount: 2
Fore
SplineSet
133 360 m 1
 133 0 l 5
 44 0 l 5
 44 700 l 1
 133 700 l 1
 133 471 l 1
 159 490 197 505 259 505 c 3
 372 505 450 414 450 279 c 2
 450 0 l 5
 366 0 l 5
 366 290 l 2
 366 383 314 421 257 421 c 3
 188 421 151 396 133 360 c 1
EndSplineSet
EndChar
StartChar: i
Encoding: 105 105 14
Width: 181
VWidth: 0
Flags: HW
LayerCount: 2
Fore
SplineSet
40 598 m 4
 40 624 65 650 91 650 c 4
 117 650 141 624 141 598 c 4
 141 572 117 546 91 546 c 4
 65 546 40 572 40 598 c 4
137 0 m 1
 44 0 l 1
 44 501 l 1
 137 501 l 1
 137 0 l 1
EndSplineSet
Validated: 1
EndChar
StartChar: j
Encoding: 106 106 17
Width: 301
VWidth: 0
Flags: HW
LayerCount: 2
Fore
SplineSet
160 598 m 0
 160 624 185 650 211 650 c 0
 237 650 261 624 261 598 c 0
 261 572 237 546 211 546 c 0
 185 546 160 572 160 598 c 0
50 -110 m 1
 80 -54 l 1
 97 -61 112 -64 124 -64 c 3
 149 -64 169 -40 169 10 c 2
 169 500 l 1
 251 500 l 1
 251 0 l 2
 251 -70 222 -143 137 -143 c 3
 110 -143 84 -129 50 -110 c 1
EndSplineSet
Validated: 1
EndChar
StartChar: k
Encoding: 107 107 25
Width: 426
VWidth: 0
Flags: HW
LayerCount: 2
Fore
SplineSet
50 0 m 1
 50 700 l 5
 142 700 l 5
 142 308 l 1
 275 471 l 1
 391 471 l 1
 194 235 l 1
 401 0 l 1
 285 0 l 1
 142 163 l 1
 142 0 l 1
 50 0 l 1
EndSplineSet
EndChar
StartChar: l
Encoding: 108 108 18
Width: 275
VWidth: 0
Flags: HW
LayerCount: 2
Fore
SplineSet
142 154 m 2
 142 104 167 75 192 75 c 3
 204 75 220 78 237 85 c 1
 273 18 l 1
 239 -1 206 -10 179 -10 c 3
 94 -10 50 74 50 144 c 2
 50 700 l 1
 142 700 l 1
 142 154 l 2
EndSplineSet
EndChar
StartChar: m
Encoding: 109 109 2
Width: 833
VWidth: 0
Flags: HW
LayerCount: 2
Fore
SplineSet
369 310 m 2
 369 383 319 441 256 441 c 0
 200 441 152 398 131 338 c 1
 131 0 l 1
 131 -6 l 1
 125 -6 l 1
 50 -6 l 1
 44 -6 l 1
 44 0 l 1
 44 500 l 1
 44 506 l 1
 50 506 l 1
 125 506 l 1
 131 506 l 1
 131 500 l 1
 131 467 l 1
 170 498 206 516 256 516 c 0
 325 516 372 482 414 432 c 1
 457 480 514 516 587 516 c 0
 699 516 789 441 789 310 c 2
 789 0 l 1
 789 -6 l 1
 783 -6 l 1
 706 -6 l 1
 700 -6 l 1
 700 0 l 1
 700 310 l 2
 700 383 650 441 587 441 c 0
 527 441 456 387 456 310 c 2
 456 0 l 1
 456 -6 l 1
 450 -6 l 1
 375 -6 l 1
 369 -6 l 1
 369 0 l 1
 369 310 l 2
EndSplineSet
Validated: 1
EndChar
StartChar: n
Encoding: 110 110 1
Width: 519
VWidth: 0
Flags: HW
LayerCount: 2
Fore
SplineSet
386 307 m 2
 386 380 334 441 271 441 c 3
 215 441 152 397 131 338 c 1
 131 0 l 5
 44 0 l 5
 44 506 l 1
 131 506 l 1
 131 467 l 1
 172 498 221 516 271 516 c 3
 383 516 475 429 475 313 c 2
 475 0 l 5
 386 0 l 5
 386 307 l 2
EndSplineSet
Validated: 1
EndChar
StartChar: o
Encoding: 111 111 0
Width: 572
VWidth: 0
Flags: HW
LayerCount: 2
Fore
SplineSet
107 250 m 0
 107 150 188 69 288 69 c 0
 388 69 469 150 469 250 c 0
 469 350 388 431 288 431 c 0
 188 431 107 350 107 250 c 0
25 248 m 0
 25 395 142 515 286 515 c 0
 430 515 547 395 547 248 c 0
 547 101 430 -19 286 -19 c 0
 142 -19 25 101 25 248 c 0
EndSplineSet
EndChar
StartChar: p
Encoding: 112 112 8
Width: 570
VWidth: 0
Flags: W
HStem: -10 84<196.705 367.973> 436 88<195.623 367.973> 491 20G<44 138>
VStem: 44 94<-200 35 123.017 388.345 479 511> 463 82<170.126 341.874>
LayerCount: 2
Fore
SplineSet
545 257 m 7xd8
 545 110 428 -10 284 -10 c 7
 230 -10 179 7 138 35 c 5
 138 -200 l 1
 44 -200 l 1
 44 511 l 5
 138 511 l 5xb8
 138 479 l 5
 181 508 230 524 284 524 c 7
 428 524 545 404 545 257 c 7xd8
463 255 m 7
 463 355 382 436 282 436 c 7xd8
 223 436 171 407 138 364 c 5
 138 146 l 5
 172 102 224 74 282 74 c 7
 382 74 463 155 463 255 c 7
EndSplineSet
Validated: 1
EndChar
StartChar: q
Encoding: 113 113 7
Width: 690
VWidth: 0
Flags: HW
LayerCount: 2
Fore
SplineSet
107 255 m 4
 107 155 188 74 288 74 c 4
 347 74 400 104 433 147 c 5
 433 363 l 5
 399 407 346 436 288 436 c 4
 188 436 107 355 107 255 c 4
525 -37 m 6
 525 -87 545 -116 570 -116 c 0
 582 -116 597 -113 614 -106 c 1
 650 -173 l 1
 616 -192 584 -201 557 -201 c 0
 472 -201 433 -117 433 -47 c 6
 433 36 l 5
 390 7 340 -10 286 -10 c 4
 142 -10 25 110 25 257 c 4
 25 404 142 524 286 524 c 4
 340 524 392 506 433 478 c 5
 433 505 l 5
 525 505 l 5
 525 -37 l 6
EndSplineSet
EndChar
StartChar: r
Encoding: 114 114 15
Width: 384
VWidth: 0
Flags: HW
LayerCount: 2
Fore
SplineSet
329 420 m 1
 307 429 284 435 264 435 c 3
 196 435 148 384 131 338 c 1
 131 225 131 113 131 0 c 1
 44 0 l 1
 44 506 l 1
 131 506 l 1
 131 469 l 1
 165 502 212 524 265 524 c 3
 296 524 328 514 360 501 c 1
 329 420 l 1
EndSplineSet
Validated: 1
EndChar
StartChar: s
Encoding: 115 115 24
Width: 402
VWidth: 0
Flags: W
HStem: -10 84<117.655 273.16> 215 85<129.126 275.552> 437 84<139.859 281.847>
VStem: 29 84<315.686 410.771> 298 80<98.4481 191.365>
LayerCount: 2
Fore
SplineSet
195 215 m 4
 109 215 29 248 29 365 c 4
 29 436 92 521 195 521 c 4
 294 521 323 497 368 444 c 6
 372 440 l 5
 368 436 l 5
 317 386 l 5
 312 381 l 5
 308 386 l 6
 294 405 275 437 198 437 c 4
 141 437 113 392 113 364 c 4
 113 322 140 300 195 300 c 4
 281 300 378 270 378 148 c 4
 378 54 303 -10 194 -10 c 4
 113 -10 64 26 29 67 c 6
 25 71 l 5
 29 75 l 5
 80 125 l 5
 85 130 l 5
 89 125 l 6
 108 99 138 74 192 74 c 4
 259 74 298 101 298 148 c 4
 298 194 252 215 195 215 c 4
EndSplineSet
Validated: 1
EndChar
StartChar: t
Encoding: 116 116 23
Width: 363
VWidth: 0
Flags: HW
LayerCount: 2
Fore
SplineSet
213 154 m 2
 213 104 233 80 258 80 c 0
 270 80 285 83 302 90 c 1
 338 23 l 1
 304 4 272 -5 245 -5 c 0
 160 -5 121 74 121 144 c 2
 121 450 l 1
 50 450 l 1
 50 530 l 1
 121 530 l 1
 121 650 l 1
 213 650 l 1
 213 530 l 1
 332 530 l 1
 332 450 l 1
 213 450 l 1
 213 154 l 2
EndSplineSet
Validated: 1
EndChar
StartChar: u
Encoding: 117 117 22
Width: 507
VWidth: 0
Flags: W
HStem: -10 84<160.869 339.109> 0 21G<370 463> 480 20G<44 136 370 463>
VStem: 44 92<98.8535 500> 370 93<0 25 101.603 500>
LayerCount: 2
Fore
SplineSet
106 27 m 0xb8
 66 61 44 117 44 155 c 2
 44 500 l 1
 136 500 l 1
 136 165 l 2
 136 80 195 74 248 74 c 3xb8
 284 74 329 83 370 117 c 1
 370 500 l 1
 463 500 l 1
 463 0 l 1
 370 0 l 1x78
 370 25 l 1
 343 7 305 -10 246 -10 c 3
 212 -10 145 -6 106 27 c 0xb8
EndSplineSet
Validated: 1
EndChar
StartChar: v
Encoding: 118 118 20
Width: 512
VWidth: 0
Flags: W
HStem: 0 21G<246.76 265.24> 480 20G<25 132.172 375.172 487>
LayerCount: 2
Fore
SplineSet
256 0 m 1
 25 500 l 1
 123 500 l 1
 256 210 l 1
 384 500 l 1
 487 500 l 1
 256 0 l 1
EndSplineSet
Validated: 1
EndChar
StartChar: w
Encoding: 119 119 21
Width: 692
VWidth: 0
Flags: HW
LayerCount: 2
Fore
SplineSet
256 0 m 1
 25 499 l 1
 123 499 l 1
 256 210 l 1
 297 301 l 1
 205 499 l 1
 303 499 l 1
 344 408 l 1
 384 499 l 1
 487 499 l 1
 394 299 l 1
 436 210 l 1
 564 499 l 1
 667 499 l 1
 436 0 l 1
 346 196 l 1
 256 0 l 1
EndSplineSet
Validated: 1
EndChar
StartChar: x
Encoding: 120 120 19
Width: 524
VWidth: 0
Flags: W
HStem: 480 20G<25 154.943 371.943 499>
LayerCount: 2
Fore
SplineSet
320 248 m 2
 499 -3 l 1
 386 -3 l 1
 263 172 l 1
 141 -3 l 1
 25 -3 l 1
 205 248 l 1
 25 500 l 1
 141 500 l 1
 263 325 l 1
 386 500 l 1
 499 500 l 1
 320 248 l 2
EndSplineSet
Validated: 1
EndChar
StartChar: y
Encoding: 121 121 16
Width: 516
VWidth: 0
Flags: HW
LayerCount: 2
Fore
SplineSet
114 -56 m 1
 148 -103 191 -124 254 -124 c 3
 312 -124 379 -85 379 -21 c 2
 379 18 l 1
 352 0 305 -17 246 -17 c 3
 212 -17 145 -13 106 20 c 0
 66 54 44 110 44 148 c 2
 44 500 l 1
 136 500 l 1
 136 158 l 2
 136 73 193 67 246 67 c 3
 282 67 338 76 379 110 c 1
 379 500 l 1
 472 500 l 1
 472 20 l 2
 472 -137 373 -208 256 -208 c 3
 168 -208 104 -178 52 -117 c 1
 114 -56 l 1
EndSplineSet
EndChar
StartChar: z
Encoding: 122 122 26
Width: 490
VWidth: 0
Flags: HW
LayerCount: 2
Fore
SplineSet
50 496 m 1
 444 496 l 1
 213 96 l 1
 440 96 l 1
 440 0 l 1
 46 0 l 5
 258 400 l 1
 50 400 l 1
 50 496 l 1
EndSplineSet
EndChar
StartChar: braceleft
Encoding: 123 123 715
Width: 290
VWidth: 0
Flags: W
HStem: -150 96<188.265 265> 277 96<20 76.6401> 704 96<187.85 265>
VStem: 25 96<11.2592 149.012 498.83 638.741> 82 92<178.446 270.177 379.405 471.666>
CounterMasks: 1 e0
LayerCount: 2
Fore
SplineSet
126 327 m 1xe8
 162 310 174 261 174 238 c 0xe8
 174 180 121 131 121 90 c 0
 121 10 176 -54 265 -54 c 1
 265 -150 l 1
 118 -150 25 -42 25 90 c 0xf0
 25 139 82 196 82 235 c 0xe8
 82 255 68 277 25 277 c 2
 20 277 l 1
 20 373 l 1
 25 373 l 2
 71 373 87 395 87 415 c 0
 87 454 25 511 25 560 c 0
 25 692 132 800 265 800 c 1
 265 704 l 1
 175 704 121 640 121 560 c 0xf0
 121 495 174 460 174 413 c 0
 174 395 162 347 126 327 c 1xe8
EndSplineSet
Validated: 1
EndChar
StartChar: bar
Encoding: 124 124 40
Width: 146
VWidth: 0
Flags: HW
LayerCount: 2
Fore
SplineSet
25 -150 m 1
 25 800 l 1
 121 800 l 1
 121 -150 l 5
 25 -150 l 1
EndSplineSet
EndChar
StartChar: braceright
Encoding: 125 125 716
Width: 290
VWidth: 0
Flags: W
HStem: -150 96<20 96.7351> 277 96<208.36 265> 704 96<20 97.1498>
VStem: 111 92<178.446 270.177 379.405 471.666> 164 96<11.2592 149.012 498.83 638.741>
CounterMasks: 1 e0
LayerCount: 2
Fore
SplineSet
159 327 m 1xf0
 123 347 111 395 111 413 c 0xf0
 111 460 164 495 164 560 c 0
 164 640 110 704 20 704 c 1
 20 800 l 1
 153 800 260 692 260 560 c 0
 260 511 198 454 198 415 c 0
 198 395 214 373 260 373 c 2
 265 373 l 1
 265 277 l 1
 260 277 l 2xe8
 217 277 203 255 203 235 c 0xf0
 203 196 260 139 260 90 c 0
 260 -42 167 -150 20 -150 c 1
 20 -54 l 1
 109 -54 164 10 164 90 c 0xe8
 164 131 111 180 111 238 c 0
 111 261 123 310 159 327 c 1xf0
EndSplineSet
Validated: 1
EndChar
StartChar: asciitilde
Encoding: 126 126 697
Width: 375
VWidth: 0
Flags: HW
LayerCount: 2
Fore
SplineSet
378.5 746 m 0
 398 746 417.5 732.5 417.5 710 c 0
 417.5 695 410.078082823 681.321139653 396.5 675.5 c 0
 356 658.137007078 314 641.5 264.5 641.5 c 3
 204.5 641.5 82 686.5 35.5 686.5 c 3
 -0.00352095215347 686.5 -29 672.584942085 -63.5 657 c 0
 -67.8228083501 655.047225572 -74 652.5 -78.5 652.5 c 0
 -98 652.5 -117.5 666 -117.5 688.5 c 0
 -117.5 703.5 -110 718.5 -96.5 724.5 c 0
 -75.5 735 -17 758.5 37 758.5 c 3
 97 758.5 219.5 713.5 266 713.5 c 3
 314.127435003 713.5 348.5 735.5 365 743 c 0
 369.5 744.5 374 746 378.5 746 c 0
EndSplineSet
EndChar
StartChar: exclamdown
Encoding: 161 161 700
Width: 150
VWidth: 0
Flags: HW
LayerCount: 2
Fore
SplineSet
125 400 m 3
 125 373 102 350 75 350 c 3
 48 350 25 373 25 400 c 3
 25 427 48 450 75 450 c 3
 102 450 125 427 125 400 c 3
25 200 m 2
 25 227 48 250 75 250 c 0
 102 250 125 227 125 200 c 2
 125 -150 l 2
 125 -177 102 -200 75 -200 c 0
 48 -200 25 -177 25 -150 c 2
 25 200 l 2
EndSplineSet
EndChar
StartChar: cent
Encoding: 162 162 44
Width: 513
VWidth: 0
Flags: W
HStem: 0 21G<71 170.75> 47 76<220.927 369.155> 497 72<198.149 286.62>
VStem: 25 70<223.399 396.346>
LayerCount: 2
Fore
SplineSet
488 150 m 5
 444 94 375 47 280 47 c 4
 248 47 218 53 190 64 c 5
 162 0 l 5
 71 0 l 5
 117 107 l 5
 60 155 25 227 25 308 c 4
 25 452 139 569 280 569 c 4
 293 569 305 568 317 566 c 5
 353 648 l 5
 444 648 l 5
 397 539 l 5
 427 522 455 500 482 471 c 5
 432 421 l 5
 415 443 394 462 369 475 c 5
 220 134 l 5
 239 127 260 123 282 123 c 4
 343 123 398 153 432 199 c 5
 488 150 l 5
287 497 m 6
 285 497 284 497 282 497 c 4
 179 497 95 413 95 310 c 4
 95 259 116 213 149 179 c 5
 287 497 l 6
EndSplineSet
Validated: 1
EndChar
StartChar: brokenbar
Encoding: 166 166 701
Width: 146
VWidth: 0
Flags: HW
LayerCount: 2
Fore
SplineSet
25 300 m 1
 121 300 l 1
 121 -100 l 1
 25 -100 l 1
 25 300 l 1
25 400 m 1
 25 800 l 1
 121 800 l 1
 121 400 l 1
 25 400 l 1
EndSplineSet
EndChar
StartChar: dieresis
Encoding: 168 168 698
Width: 350
VWidth: 0
Flags: HW
LayerCount: 2
Fore
SplineSet
75 650 m 3
 48 650 25 673 25 700 c 3
 25 727 48 750 75 750 c 3
 102 750 125 727 125 700 c 3
 125 673 102 650 75 650 c 3
275 650 m 3
 248 650 225 673 225 700 c 3
 225 727 248 750 275 750 c 3
 302 750 325 727 325 700 c 3
 325 673 302 650 275 650 c 3
EndSplineSet
Validated: 1
EndChar
StartChar: macron
Encoding: 175 175 702
Width: 300
VWidth: 0
Flags: W
HStem: 675 50<25.2145 274.786>
VStem: 25 250<675.214 724.786>
LayerCount: 2
Fore
SplineSet
50 675 m 2
 37 675 25 687 25 700 c 0
 25 713 37 725 50 725 c 2
 250 725 l 2
 263 725 275 713 275 700 c 0
 275 687 263 675 250 675 c 2
 50 675 l 2
EndSplineSet
Validated: 1
EndChar
StartChar: degree
Encoding: 176 176 699
Width: 238
VWidth: 0
Flags: HW
LayerCount: 2
Fore
SplineSet
119 606 m 3
 76 606 25 648 25 700 c 3
 25 751 68 794 119 794 c 3
 170 794 213 751 213 700 c 3
 213 649 170 606 119 606 c 3
119 650 m 3
 146 650 169 673 169 700 c 3
 169 727 146 750 119 750 c 3
 92 750 69 727 69 700 c 3
 69 673 92 650 119 650 c 3
EndSplineSet
EndChar
StartChar: acute
Encoding: 180 180 704
Width: 245
VWidth: 0
Flags: HW
LayerCount: 2
Fore
SplineSet
215 737 m 2
 219 734 220 729 220 725 c 3
 220 721 219 716 215 713 c 2
 69 600 l 2
 60 593 52 590 45 590 c 3
 33 590 25 599 25 611 c 3
 25 618 27 627 34 635 c 2
 147 781 l 2
 150 785 154 788 159 788 c 3
 162 788 166 786 169 783 c 2
 215 737 l 2
EndSplineSet
Validated: 1
EndChar
StartChar: dotlessi
Encoding: 305 305 89
Width: 181
VWidth: 0
Flags: W
HStem: 0 21G<44 137> 481 20G<44 137>
VStem: 44 93<0 501>
LayerCount: 2
Fore
SplineSet
137 0 m 1
 44 0 l 1
 44 501 l 1
 137 501 l 1
 137 0 l 1
EndSplineSet
EndChar
StartChar: longs
Encoding: 383 383 757
Width: 275
VWidth: 0
Flags: W
HStem: 0 21G<50 142> 625 85<158.293 264.89>
VStem: 50 92<0 609.594>
LayerCount: 2
Fore
SplineSet
142 546 m 2
 142 0 l 1
 50 0 l 1
 50 556 l 2
 50 626 94 710 179 710 c 3
 229 710 284 698 324 641 c 1
 263 596 l 1
 246 617 216 625 192 625 c 3
 167 625 142 596 142 546 c 2
EndSplineSet
Validated: 1
EndChar
StartChar: uni0237
Encoding: 567 567 205
Width: 301
VWidth: 0
Flags: W
HStem: -143 79<75.2997 156.993> 480 20G<169 251>
VStem: 169 82<-54.9919 500>
LayerCount: 2
Fore
SplineSet
50 -110 m 1
 80 -54 l 1
 97 -61 112 -64 124 -64 c 3
 149 -64 169 -40 169 10 c 2
 169 500 l 1
 251 500 l 1
 251 0 l 2
 251 -70 222 -143 137 -143 c 3
 110 -143 84 -129 50 -110 c 1
EndSplineSet
EndChar
StartChar: tilde
Encoding: 732 732 696
Width: 300
VWidth: 0
Flags: W
HStem: 661 48<136.312 259.122> 677 47<25.1492 96.3005 204.654 274.916> 691 48<41.0172 164.688>
VStem: 25 250<691.215 708.632>
LayerCount: 2
Fore
SplineSet
249 724 m 0x50
 262 724 275 715 275 700 c 0
 275 690 270 681 261 677 c 0x50
 247 671 236 661 203 661 c 3x90
 163 661 128 691 97 691 c 3
 82 691 72 683 61 678 c 0
 58 677 54 675 51 675 c 0
 38 675 25 684 25 699 c 0
 25 709 30 719 39 723 c 0
 53 730 70 739 98 739 c 3x30
 138 739 173 709 204 709 c 3x90
 218 709 229 717 240 722 c 0
 243 723 246 724 249 724 c 0x50
EndSplineSet
Validated: 1
EndChar
StartChar: gravecomb
Encoding: 768 768 54
Width: 197
VWidth: 0
Flags: HW
LayerCount: 2
Fore
SplineSet
50 782 m 6
 53 786 58 787 62 787 c 7
 66 787 71 786 74 782 c 6
 187 636 l 6
 194 627 197 619 197 612 c 7
 197 600 188 591 176 591 c 7
 169 591 160 594 152 601 c 6
 6 714 l 6
 2 717 0 721 0 726 c 7
 0 729 1 733 4 736 c 6
 50 782 l 6
EndSplineSet
EndChar
StartChar: acutecomb
Encoding: 769 769 53
Width: 1024
VWidth: 0
Flags: HW
LayerCount: 2
Fore
SplineSet
139 737 m 2
 143 734 144 729 144 725 c 3
 144 721 143 716 139 713 c 2
 -7 600 l 2
 -16 593 -24 590 -31 590 c 3
 -43 590 -51 599 -51 611 c 3
 -51 618 -49 627 -42 635 c 2
 71 781 l 2
 74 785 78 788 83 788 c 3
 86 788 90 786 93 783 c 2
 139 737 l 2
EndSplineSet
Validated: 1
EndChar
StartChar: uni0302
Encoding: 770 770 90
Width: 269
VWidth: 0
Flags: HW
LayerCount: 2
Fore
SplineSet
135 787 m 0
 139 787 144 786 147 782 c 2
 259 636 l 2
 266 627 269 619 269 612 c 0
 269 600 260 591 248 591 c 0
 241 591 232 594 224 601 c 2
 135 670 l 1
 44 599 l 2
 35 592 27 589 20 589 c 0
 8 589 0 598 0 610 c 0
 0 617 2 626 9 634 c 2
 123 780 l 2
 126 784 130 787 135 787 c 0
EndSplineSet
EndChar
StartChar: tildecomb
Encoding: 771 771 98
Width: 250
VWidth: 0
Flags: HW
LayerCount: 2
Fore
SplineSet
224 724 m 0
 237 724 250 715 250 700 c 0
 250 690 245 681 236 677 c 0
 222 671 211 661 178 661 c 3
 138 661 103 691 72 691 c 3
 57 691 47 683 36 678 c 0
 33 677 29 675 26 675 c 0
 13 675 0 684 0 699 c 0
 0 709 5 719 14 723 c 0
 28 730 45 739 73 739 c 3
 113 739 148 709 179 709 c 3
 193 709 204 717 215 722 c 0
 218 723 221 724 224 724 c 0
EndSplineSet
EndChar
StartChar: uni0304
Encoding: 772 772 94
Width: 250
VWidth: 0
Flags: HW
LayerCount: 2
Fore
SplineSet
25 675 m 2
 12.021484375 675 0 687.022460938 0 700 c 0
 0 712.978515625 12.0224609375 725 25 725 c 2
 225 725 l 2
 237.978515625 725 250 712.977539062 250 700 c 0
 250 687.021484375 237.977539062 675 225 675 c 2
 25 675 l 2
EndSplineSet
EndChar
StartChar: uni0306
Encoding: 774 774 95
Width: 250
VWidth: 0
Flags: HW
LayerCount: 2
Fore
SplineSet
125 625 m 0
 77.34765625 625 46.76953125 643.5859375 7.677734375 682.677734375 c 0
 1.9189453125 688.436523438 0 693.672851562 0 700 c 0
 0 706.327148438 1.9189453125 711.563476562 7.677734375 717.322265625 c 0
 13.4365234375 723.081054688 18.6728515625 725 25 725 c 0
 31.3271484375 725 36.5634765625 723.081054688 42.322265625 717.322265625 c 0
 49.72265625 709.922851562 76.5146484375 675 125 675 c 0
 171.750976562 675 199.544921875 709.190429688 207.677734375 717.322265625 c 0
 213.436523438 723.081054688 218.672851562 725 225 725 c 0
 231.327148438 725 236.563476562 723.081054688 242.322265625 717.322265625 c 0
 248.081054688 711.563476562 250 706.327148438 250 700 c 0
 250 693.672851562 248.081054688 688.436523438 242.322265625 682.677734375 c 0
 204.403320312 644.758789062 163.255859375 625 125 625 c 0
EndSplineSet
EndChar
StartChar: uni0307
Encoding: 775 775 96
Width: 100
VWidth: 0
Flags: HW
LayerCount: 2
Fore
SplineSet
50 650 m 3
 23 650 0 673 0 700 c 3
 0 727 23 750 50 750 c 3
 77 750 100 727 100 700 c 3
 100 673 77 650 50 650 c 3
EndSplineSet
EndChar
StartChar: uni0308
Encoding: 776 776 91
Width: 300
VWidth: 0
Flags: HW
LayerCount: 2
Fore
SplineSet
50 650 m 3
 23 650 0 673 0 700 c 3
 0 727 23 750 50 750 c 3
 77 750 100 727 100 700 c 3
 100 673 77 650 50 650 c 3
250 650 m 3
 223 650 200 673 200 700 c 3
 200 727 223 750 250 750 c 3
 277 750 300 727 300 700 c 3
 300 673 277 650 250 650 c 3
EndSplineSet
EndChar
StartChar: uni030A
Encoding: 778 778 99
Width: 187
VWidth: 0
Flags: HW
LayerCount: 2
Fore
SplineSet
93.75 606.25 m 3
 50.2607421875 606.25 0 647.838867188 0 700 c 3
 0 750.625 43.125 793.75 93.75 793.75 c 3
 144.375 793.75 187.5 750.625 187.5 700 c 3
 187.5 649.375 144.375 606.25 93.75 606.25 c 3
93.75 650 m 3
 120.75 650 143.75 673 143.75 700 c 3
 143.75 727 120.75 750 93.75 750 c 3
 66.75 750 43.75 727 43.75 700 c 3
 43.75 673 66.75 650 93.75 650 c 3
EndSplineSet
EndChar
StartChar: uni030C
Encoding: 780 780 158
Width: 0
VWidth: 0
Flags: HW
LayerCount: 2
Fore
SplineSet
-285 589 m 0
 -289 589 -294 590 -297 594 c 2
 -409 740 l 2
 -416 749 -419 757 -419 764 c 0
 -419 776 -410 785 -398 785 c 0
 -391 785 -382 782 -374 775 c 2
 -285 706 l 1
 -194 777 l 2
 -185 784 -177 787 -170 787 c 0
 -158 787 -150 778 -150 766 c 0
 -150 759 -152 750 -159 742 c 2
 -273 596 l 2
 -276 592 -280 589 -285 589 c 0
EndSplineSet
EndChar
StartChar: uni0311
Encoding: 785 785 97
Width: 250
VWidth: 0
Flags: HW
LayerCount: 2
Fore
SplineSet
125 725 m 0
 172.65234375 725 203.23046875 706.4140625 242.322265625 667.322265625 c 0
 248.081054688 661.563476562 250 656.327148438 250 650 c 0
 250 643.672851562 248.081054688 638.436523438 242.322265625 632.677734375 c 0
 236.563476562 626.918945312 231.327148438 625 225 625 c 0
 218.672851562 625 213.436523438 626.918945312 207.677734375 632.677734375 c 0
 200.27734375 640.077148438 173.485351562 675 125 675 c 0
 78.2490234375 675 50.455078125 640.809570312 42.322265625 632.677734375 c 0
 36.5634765625 626.918945312 31.3271484375 625 25 625 c 0
 18.6728515625 625 13.4365234375 626.918945312 7.677734375 632.677734375 c 0
 1.9189453125 638.436523438 0 643.672851562 0 650 c 0
 0 656.327148438 1.9189453125 661.563476562 7.677734375 667.322265625 c 0
 45.5966796875 705.241210938 86.744140625 725 125 725 c 0
EndSplineSet
EndChar
StartChar: uni0312
Encoding: 786 786 252
Width: 150
VWidth: 0
Flags: HW
LayerCount: 2
Fore
SplineSet
81 725 m 4
 77 721 75 718 75 708 c 5
 102 708 125 685 125 658 c 7
 125 631 102 608 75 608 c 7
 48 608 25 631 25 658 c 7
 25 719 40 720 64 744 c 4
 68 748 73 750 77 750 c 7
 83 750 88 745 88 739 c 7
 88 735 86 730 81 725 c 4
EndSplineSet
EndChar
StartChar: uni0313
Encoding: 787 787 251
Width: 150
VWidth: 0
Flags: HW
LayerCount: 2
Fore
SplineSet
69 633 m 4
 73 637 75 640 75 650 c 5
 48 650 25 673 25 700 c 7
 25 727 48 750 75 750 c 7
 102 750 125 727 125 700 c 7
 125 639 110 638 86 614 c 4
 82 610 77 608 73 608 c 7
 67 608 62 613 62 619 c 7
 62 623 64 628 69 633 c 4
EndSplineSet
EndChar
StartChar: uni0314
Encoding: 788 788 253
Width: 150
VWidth: 0
Flags: W
HStem: 650 100<75 116.299>
VStem: 25 50<629.812 650>
LayerCount: 2
Fore
SplineSet
81 633 m 0
 86 628 88 623 88 619 c 3
 88 613 83 608 77 608 c 3
 73 608 68 610 64 614 c 0
 40 638 25 639 25 700 c 3
 25 727 48 750 75 750 c 3
 102 750 125 727 125 700 c 3
 125 673 102 650 75 650 c 1
 75 640 77 637 81 633 c 0
EndSplineSet
Validated: 1
EndChar
StartChar: uni0315
Encoding: 789 789 758
Width: 150
VWidth: 0
Flags: HW
LayerCount: 2
Fore
SplineSet
69 633 m 0
 73 637 75 640 75 650 c 1
 48 650 25 673 25 700 c 3
 25 727 48 750 75 750 c 3
 102 750 125 727 125 700 c 3
 125 639 110 638 86 614 c 0
 82 610 77 608 73 608 c 3
 67 608 62 613 62 619 c 3
 62 623 64 628 69 633 c 0
EndSplineSet
Validated: 1
EndChar
StartChar: dotbelowcomb
Encoding: 803 803 165
Width: 0
VWidth: -800
Flags: W
HStem: -150 100<-241.299 -158.701>
VStem: -250 100<-141.299 -58.7012>
LayerCount: 2
Fore
SplineSet
-200 -150 m 3
 -227 -150 -250 -127 -250 -100 c 3
 -250 -73 -227 -50 -200 -50 c 3
 -173 -50 -150 -73 -150 -100 c 3
 -150 -127 -173 -150 -200 -150 c 3
EndSplineSet
Validated: 1
EndChar
StartChar: uni0324
Encoding: 804 804 166
Width: 0
VWidth: -800
Flags: W
HStem: -150 100<-441.299 -358.701 -241.299 -158.701>
VStem: -450 100<-141.299 -58.7012> -250 100<-141.299 -58.7012>
LayerCount: 2
Fore
SplineSet
-400 -150 m 3
 -427 -150 -450 -127 -450 -100 c 3
 -450 -73 -427 -50 -400 -50 c 3
 -373 -50 -350 -73 -350 -100 c 3
 -350 -127 -373 -150 -400 -150 c 3
-200 -150 m 3
 -227 -150 -250 -127 -250 -100 c 3
 -250 -73 -227 -50 -200 -50 c 3
 -173 -50 -150 -73 -150 -100 c 3
 -150 -127 -173 -150 -200 -150 c 3
EndSplineSet
Validated: 1
EndChar
StartChar: uni0325
Encoding: 805 805 167
Width: 0
VWidth: -800
Flags: HW
LayerCount: 2
Fore
SplineSet
-244 -194 m 3
 -287 -194 -338 -152 -338 -100 c 3
 -338 -49 -295 -6 -244 -6 c 3
 -193 -6 -150 -49 -150 -100 c 3
 -150 -151 -193 -194 -244 -194 c 3
-244 -150 m 3
 -217 -150 -194 -127 -194 -100 c 3
 -194 -73 -217 -50 -244 -50 c 3
 -271 -50 -294 -73 -294 -100 c 3
 -294 -127 -271 -150 -244 -150 c 3
EndSplineSet
Validated: 1
EndChar
StartChar: uni032C
Encoding: 812 812 161
Width: 0
VWidth: -800
Flags: HW
LayerCount: 2
Fore
SplineSet
-285 -201 m 4
 -289 -201 -294 -200 -297 -196 c 6
 -409 -50 l 6
 -416 -41 -419 -33 -419 -26 c 4
 -419 -14 -410 -5 -398 -5 c 4
 -391 -5 -382 -8 -374 -15 c 6
 -285 -84 l 5
 -194 -13 l 6
 -185 -6 -177 -3 -170 -3 c 4
 -158 -3 -150 -12 -150 -24 c 4
 -150 -31 -152 -40 -159 -48 c 6
 -273 -194 l 6
 -276 -198 -280 -201 -285 -201 c 4
EndSplineSet
Validated: 1
EndChar
StartChar: uni032D
Encoding: 813 813 162
Width: 0
VWidth: -800
Flags: W
HStem: -199 196
VStem: -419 269<-190 -173>
LayerCount: 2
Fore
SplineSet
-284 -3 m 0
 -280 -3 -275 -4 -272 -8 c 2
 -160 -154 l 2
 -153 -163 -150 -171 -150 -178 c 0
 -150 -190 -159 -199 -171 -199 c 0
 -178 -199 -187 -196 -195 -189 c 2
 -284 -120 l 1
 -375 -191 l 2
 -384 -198 -392 -201 -399 -201 c 0
 -411 -201 -419 -192 -419 -180 c 0
 -419 -173 -417 -164 -410 -156 c 2
 -296 -10 l 2
 -293 -6 -289 -3 -284 -3 c 0
EndSplineSet
Validated: 1
EndChar
StartChar: uni032E
Encoding: 814 814 163
Width: 0
VWidth: -800
Flags: HW
LayerCount: 2
Fore
SplineSet
-275 -175 m 0
 -323 -175 -353 -156 -392 -117 c 0
 -398 -111 -400 -106 -400 -100 c 0
 -400 -94 -398 -89 -392 -83 c 0
 -386 -77 -381 -75 -375 -75 c 0
 -369 -75 -364 -77 -358 -83 c 0
 -351 -90 -323 -125 -275 -125 c 0
 -228 -125 -200 -91 -192 -83 c 0
 -186 -77 -181 -75 -175 -75 c 0
 -169 -75 -164 -77 -158 -83 c 0
 -152 -89 -150 -94 -150 -100 c 0
 -150 -106 -152 -111 -158 -117 c 0
 -196 -155 -237 -175 -275 -175 c 0
EndSplineSet
Validated: 1
EndChar
StartChar: uni032F
Encoding: 815 815 164
Width: 0
VWidth: -800
Flags: W
HStem: -125 50<-337.237 -213.144>
VStem: -400 250<-156 -144>
LayerCount: 2
Fore
SplineSet
-275 -75 m 0
 -227 -75 -197 -94 -158 -133 c 0
 -152 -139 -150 -144 -150 -150 c 0
 -150 -156 -152 -161 -158 -167 c 0
 -164 -173 -169 -175 -175 -175 c 0
 -181 -175 -186 -173 -192 -167 c 0
 -199 -160 -227 -125 -275 -125 c 0
 -322 -125 -350 -159 -358 -167 c 0
 -364 -173 -369 -175 -375 -175 c 0
 -381 -175 -386 -173 -392 -167 c 0
 -398 -161 -400 -156 -400 -150 c 0
 -400 -144 -398 -139 -392 -133 c 0
 -354 -95 -313 -75 -275 -75 c 0
EndSplineSet
Validated: 1
EndChar
StartChar: uni0330
Encoding: 816 816 159
Width: 0
VWidth: -800
Flags: W
HStem: -139 48<-288.688 -165.878> -123 47<-399.851 -328.699 -220.346 -150.084> -109 48<-383.983 -260.312>
VStem: -400 250<-108.785 -91.3682>
LayerCount: 2
Fore
SplineSet
-176 -76 m 0x50
 -163 -76 -150 -85 -150 -100 c 0
 -150 -110 -155 -119 -164 -123 c 0x50
 -178 -129 -189 -139 -222 -139 c 3x90
 -262 -139 -297 -109 -328 -109 c 3
 -343 -109 -353 -117 -364 -122 c 0
 -367 -123 -371 -125 -374 -125 c 0
 -387 -125 -400 -116 -400 -101 c 0
 -400 -91 -395 -81 -386 -77 c 0
 -372 -70 -355 -61 -327 -61 c 3x30
 -287 -61 -252 -91 -221 -91 c 3x90
 -207 -91 -196 -83 -185 -78 c 0
 -182 -77 -179 -76 -176 -76 c 0x50
EndSplineSet
Validated: 1
EndChar
StartChar: uni0331
Encoding: 817 817 160
Width: 0
VWidth: -800
Flags: W
HStem: -125 50<-399.786 -150.214>
VStem: -400 250<-124.786 -75.2145>
LayerCount: 2
Fore
SplineSet
-375 -125 m 2
 -388 -125 -400 -113 -400 -100 c 0
 -400 -87 -388 -75 -375 -75 c 2
 -175 -75 l 2
 -162 -75 -150 -87 -150 -100 c 0
 -150 -113 -162 -125 -175 -125 c 2
 -375 -125 l 2
EndSplineSet
Validated: 1
EndChar
StartChar: quoteleft
Encoding: 8216 8216 34
Width: 100
VWidth: 0
Flags: HW
LayerCount: 2
Fore
SplineSet
56 775 m 0
 52 771 50 768 50 758 c 1
 77 758 100 735 100 708 c 3
 100 681 77 658 50 658 c 3
 23 658 0 681 0 708 c 3
 0 769 15 770 39 794 c 0
 43 798 48 800 52 800 c 3
 58 800 63 795 63 789 c 3
 63 785 61 780 56 775 c 0
EndSplineSet
Validated: 1
EndChar
StartChar: quoteright
Encoding: 8217 8217 33
Width: 100
VWidth: 0
Flags: W
HStem: 700 100<8.70117 50>
VStem: 50 50<679.812 700>
LayerCount: 2
Fore
SplineSet
44 683 m 0
 48 687 50 690 50 700 c 5
 23 700 0 723 0 750 c 3
 0 777 23 800 50 800 c 3
 77 800 100 777 100 750 c 3
 100 689 85 688 61 664 c 0
 57 660 52 658 48 658 c 3
 42 658 37 663 37 669 c 3
 37 673 39 678 44 683 c 0
EndSplineSet
Validated: 1
EndChar
StartChar: quotedblleft
Encoding: 8220 8220 36
Width: 212
VWidth: 0
Flags: W
VStem: 0 50<758 778.188> 112 50<758 778.188>
LayerCount: 2
Fore
SplineSet
168 775 m 0
 164 771 162 768 162 758 c 5
 189 758 212 735 212 708 c 3
 212 681 189 658 162 658 c 3
 135 658 112 681 112 708 c 3
 112 769 127 770 151 794 c 0
 155 798 160 800 164 800 c 3
 170 800 175 795 175 789 c 3
 175 785 173 780 168 775 c 0
56 775 m 0
 52 771 50 768 50 758 c 1
 77 758 100 735 100 708 c 3
 100 681 77 658 50 658 c 3
 23 658 0 681 0 708 c 3
 0 769 15 770 39 794 c 0
 43 798 48 800 52 800 c 3
 58 800 63 795 63 789 c 3
 63 785 61 780 56 775 c 0
EndSplineSet
Validated: 1
EndChar
StartChar: quotedblright
Encoding: 8221 8221 35
Width: 212
VWidth: 0
Flags: HW
LayerCount: 2
Fore
SplineSet
156 683 m 4
 160 687 162 690 162 700 c 5
 135 700 112 723 112 750 c 7
 112 777 135 800 162 800 c 7
 189 800 212 777 212 750 c 7
 212 689 197 688 173 664 c 4
 169 660 164 658 160 658 c 7
 154 658 149 663 149 669 c 7
 149 673 151 678 156 683 c 4
44 683 m 0
 48 687 50 690 50 700 c 1
 23 700 0 723 0 750 c 3
 0 777 23 800 50 800 c 3
 77 800 100 777 100 750 c 3
 100 689 85 688 61 664 c 0
 57 660 52 658 48 658 c 3
 42 658 37 663 37 669 c 3
 37 673 39 678 44 683 c 0
EndSplineSet
EndChar
StartChar: bullet
Encoding: 8226 8226 39
Width: 600
VWidth: 0
Flags: HW
LayerCount: 2
Fore
SplineSet
150 350 m 7
 150 440 210 500 300 500 c 7
 390 500 450 440 450 350 c 7
 450 260 390 200 300 200 c 7
 210 200 150 260 150 350 c 7
EndSplineSet
Validated: 1
EndChar
StartChar: twodotenleader
Encoding: 8229 8229 38
Width: 250
VWidth: 0
Flags: HW
LayerCount: 2
Fore
SplineSet
150 50 m 7
 150 77 173 100 200 100 c 7
 227 100 250 77 250 50 c 7
 250 23 227 0 200 0 c 7
 173 0 150 23 150 50 c 7
0 50 m 3
 0 77 23 100 50 100 c 3
 77 100 100 77 100 50 c 3
 100 23 77 0 50 0 c 3
 23 0 0 23 0 50 c 3
EndSplineSet
EndChar
StartChar: ellipsis
Encoding: 8230 8230 37
Width: 400
VWidth: 0
Flags: W
HStem: 0 100<8.70117 91.2988 158.701 241.299 308.701 391.299>
VStem: 0 100<8.70117 91.2988> 150 100<8.70117 91.2988> 300 100<8.70117 91.2988>
CounterMasks: 1 70
LayerCount: 2
Fore
SplineSet
300 50 m 7
 300 77 323 100 350 100 c 7
 377 100 400 77 400 50 c 7
 400 23 377 0 350 0 c 7
 323 0 300 23 300 50 c 7
150 50 m 3
 150 77 173 100 200 100 c 3
 227 100 250 77 250 50 c 3
 250 23 227 0 200 0 c 3
 173 0 150 23 150 50 c 3
0 50 m 3
 0 77 23 100 50 100 c 3
 77 100 100 77 100 50 c 3
 100 23 77 0 50 0 c 3
 23 0 0 23 0 50 c 3
EndSplineSet
Validated: 1
EndChar
StartChar: asteriskmath
Encoding: 8727 8727 47
Width: 400
VWidth: 0
Flags: HW
LayerCount: 2
Fore
SplineSet
175 475 m 6
 175 497 188 509 200 509 c 4
 212 509 225 497 225 475 c 6
 225 410 l 5
 271 456 l 6
 280 465 288 469 296 469 c 4
 302 469 308 466 312 462 c 4
 316 458 319 452 319 446 c 4
 319 438 315 430 306 421 c 6
 260 375 l 5
 325 375 l 6
 347 375 359 362 359 350 c 4
 359 338 347 325 325 325 c 6
 260 325 l 5
 306 279 l 6
 315 270 319 262 319 254 c 4
 319 248 316 242 312 238 c 4
 308 234 302 231 296 231 c 4
 288 231 280 235 271 244 c 6
 225 290 l 5
 225 225 l 6
 225 203 212 191 200 191 c 4
 188 191 175 203 175 225 c 6
 175 290 l 5
 129 244 l 6
 120 235 112 231 104 231 c 4
 98 231 92 234 88 238 c 4
 84 242 81 248 81 254 c 4
 81 262 85 270 94 279 c 6
 140 325 l 5
 75 325 l 6
 53 325 41 338 41 350 c 4
 41 362 53 375 75 375 c 6
 140 375 l 5
 94 421 l 6
 85 430 81 438 81 446 c 4
 81 452 84 458 88 462 c 4
 92 466 98 469 104 469 c 4
 112 469 120 465 129 456 c 6
 175 410 l 5
 175 475 l 6
EndSplineSet
EndChar
StartChar: uni2400
Encoding: 9216 9216 431
Width: 512
VWidth: 240
Flags: W
HStem: 194 21<36 478> 237.5 24<255.15 294.366> 240 5.25G<64.5 91 161.311 191> 240 26.5<383 447> 397.5 5G<64.5 94.1887 164.5 191 216.5 243 305.5 332 356.5 383> 433 19<36 478>
VStem: 16 20<215 433> 64.5 26.5<240 355.25> 164.5 26.5<287.25 402.5> 216.5 26.5<274.015 402.5> 305.5 26.5<272.773 402.5> 356.5 26.5<266.5 402.5> 478 18<215 433>
LayerCount: 2
Fore
SplineSet
16 452 m 5x8ff8
 496 452 l 5
 496 194 l 5
 16 194 l 5
 16 452 l 5x8ff8
36 433 m 5
 36 215 l 5
 478 215 l 5
 478 433 l 5
 36 433 l 5
EndSplineSet
Refer: 68 76 N 0.25 0 0 0.25 344 240 2
Refer: 130 85 N 0.25 0 0 0.25 204 240 2
Refer: 413 78 N 0.25 0 0 0.25 52 240 2
Validated: 1
EndChar
StartChar: uni2401
Encoding: 9217 9217 432
Width: 512
VWidth: 244
Flags: W
HStem: 194 21<36 478> 242.5 26.25<74.9823 120.084> 242.75 26.5<226.589 274.362> 245 5.25G<349.5 376 438.5 465> 312.75 26.5<79.1672 120.009> 313 25.75<376 438.5> 368.75 5.25G<130.25 137.708> 382.25 25.25<226.589 274.362> 384.5 26.25<81.5349 122.54> 402.5 5G<349.5 376 438.5 465> 433 19<36 478>
VStem: 16 20<215 433> 45.25 26.25<346.491 374.924> 129.25 25<277.499 304.734> 168.25 25.5<301.917 350.047> 306.75 24.25<301.917 350.047> 349.5 26.5<245 313 338.75 407.5> 438.5 26.5<245 313 338.75 407.5> 478 18<215 433>
LayerCount: 2
Fore
SplineSet
16 452 m 1x823fe0
 496 452 l 1
 496 194 l 1
 16 194 l 1
 16 452 l 1x823fe0
36 433 m 1
 36 215 l 1
 478 215 l 1
 478 433 l 1
 36 433 l 1
EndSplineSet
Refer: 127 72 N 0.25 0 0 0.25 337 245 2
Refer: 412 79 N 0.25 0 0 0.25 162 245 2
Refer: 416 83 N 0.25 0 0 0.25 39 245 2
Validated: 1
EndChar
StartChar: uni2402
Encoding: 9218 9218 433
Width: 512
VWidth: 244
Flags: HW
LayerCount: 2
Fore
SplineSet
16 452 m 5
 496 452 l 5
 496 194 l 5
 16 194 l 5
 16 452 l 5
36 433 m 5
 36 215 l 5
 478 215 l 5
 478 433 l 5
 36 433 l 5
EndSplineSet
Refer: 63 88 N 0.25 0 0 0.25 311 245 2
Refer: 64 84 N 0.25 0 0 0.25 170 245 2
Refer: 416 83 N 0.25 0 0 0.25 48 245 2
Validated: 1
EndChar
StartChar: uni2403
Encoding: 9219 9219 384
Width: 512
VWidth: 243
Flags: HW
LayerCount: 2
Fore
SplineSet
16 452 m 5
 496 452 l 5
 496 194 l 5
 16 194 l 5
 16 452 l 5
36 433 m 5
 36 215 l 5
 478 215 l 5
 478 433 l 5
 36 433 l 5
EndSplineSet
Refer: 63 88 N 0.25 0 0 0.25 294 244 2
Refer: 64 84 N 0.25 0 0 0.25 173 244 2
Refer: 128 69 N 0.25 0 0 0.25 68 244 2
Validated: 524289
EndChar
StartChar: uni2404
Encoding: 9220 9220 434
Width: 512
VWidth: 240
Flags: W
HStem: 194 21<36 478> 237.75 26.5<221.589 269.362> 240 5.25G<389 413> 240 26.5<81 145> 308 25.75<81 145> 376 26.5<81 145> 377.25 25.25<221.589 269.362> 378.5 24<344.5 389 413 457.5> 433 19<36 478>
VStem: 16 20<215 433> 54.5 26.5<266.5 308 333.75 376> 54.5 90.5<240 266.5 308 333.75 376 402.5> 163.25 25.5<296.917 345.047> 301.75 24.25<296.917 345.047> 389 24<240 378.5> 478 18<215 433>
LayerCount: 2
Fore
SplineSet
16 452 m 5x88cf
 496 452 l 5
 496 194 l 5
 16 194 l 5
 16 452 l 5x88cf
36 433 m 5
 36 215 l 5
 478 215 l 5
 478 433 l 5
 36 433 l 5
EndSplineSet
Refer: 64 84 N 0.25 0 0 0.25 332 240 2
Refer: 412 79 N 0.25 0 0 0.25 157 240 2
Refer: 128 69 N 0.25 0 0 0.25 42 240 2
Validated: 1
EndChar
StartChar: uni2407
Encoding: 9223 9223 435
Width: 512
VWidth: 243
Flags: W
HStem: 194 21<36 478> 244 26.5<122 167.889 237 301 353 417> 312 25.75<122 167.18 237 301> 380 26.5<122 167.215 237 301> 401.5 5G<326.5 353> 433 19<36 478>
VStem: 16 20<215 433> 95.5 26.5<270.5 312 337.75 380> 174.5 22.25<277.661 305.464 345.359 372.499> 210.5 26.5<270.5 312 337.75 380> 210.5 90.5<244 270.5 312 337.75 380 406.5> 326.5 26.5<270.5 406.5> 478 18<215 433>
LayerCount: 2
Fore
SplineSet
16 452 m 5xe798
 496 452 l 5
 496 194 l 5
 16 194 l 5
 16 452 l 5xe798
36 433 m 5
 36 215 l 5
 478 215 l 5
 478 433 l 5
 36 433 l 5
EndSplineSet
Refer: 68 76 N 0.25 0 0 0.25 314 244 2
Refer: 128 69 N 0.25 0 0 0.25 198 244 2
Refer: 415 66 N 0.25 0 0 0.25 83 244 2
Validated: 1
EndChar
StartChar: uni2408
Encoding: 9224 9224 436
Width: 512
VWidth: 244
Flags: W
HStem: 194 21<60 454> 242.5 26.25<284.982 330.084> 245 26.5<173 218.889> 312.75 26.5<289.167 330.009> 313 25.75<173 218.18> 368.75 5.25G<340.25 347.708> 381 26.5<173 218.215> 384.5 26.25<291.535 332.54> 433 19<60 454>
VStem: 40 20<215 433> 146.5 26.5<271.5 313 338.75 381> 225.5 22.25<278.661 306.464 346.359 373.499> 255.25 26.25<346.491 374.924> 339.25 25<277.499 304.734> 454 18<215 433>
LayerCount: 2
Fore
SplineSet
40 452 m 5x84fe
 472 452 l 5
 472 194 l 5
 40 194 l 5
 40 452 l 5x84fe
60 433 m 5
 60 215 l 5
 454 215 l 5
 454 433 l 5
 60 433 l 5
EndSplineSet
Refer: 416 83 N 0.25 0 0 0.25 249 245 2
Refer: 415 66 N 0.25 0 0 0.25 134 245 2
Validated: 1
EndChar
StartChar: uni2409
Encoding: 9225 9225 437
Width: 512
VWidth: 243
Flags: HW
LayerCount: 2
Fore
SplineSet
40 452 m 5
 472 452 l 5
 472 194 l 5
 40 194 l 5
 40 452 l 5
60 433 m 5
 60 215 l 5
 454 215 l 5
 454 433 l 5
 60 433 l 5
EndSplineSet
Refer: 64 84 N 0.25 0 0 0.25 257 244 2
Refer: 127 72 N 0.25 0 0 0.25 117 244 2
Validated: 1
EndChar
StartChar: uni240A
Encoding: 9226 9226 381
Width: 480
VWidth: 243
Flags: HW
LayerCount: 2
Fore
SplineSet
94.5 452 m 5
 385.5 452 l 5
 385.5 194 l 5
 94.5 194 l 5
 94.5 452 l 5
114.5 433 m 5
 114.5 215 l 5
 368.5 215 l 5
 368.5 433 l 5
 114.5 433 l 5
EndSplineSet
Refer: 129 70 N 0.25 0 0 0.25 237.5 244 2
Refer: 68 76 N 0.25 0 0 0.25 132.5 244 2
EndChar
StartChar: uni240B
Encoding: 9227 9227 382
Width: 512
VWidth: 243
Flags: W
HStem: 194 21<36 478> 244 5.25G<193.696 197.804 319 343> 382.5 24<274.5 319 343 387.5> 401.5 5G<129 153.568 236.502 262.5> 433 19<36 478>
VStem: 16 20<215 433> 319 24<244 382.5> 478 18<215 433>
LayerCount: 2
Fore
SplineSet
16 452 m 5xcf
 496 452 l 5
 496 194 l 5
 16 194 l 5
 16 452 l 5xcf
36 433 m 5
 36 215 l 5
 478 215 l 5
 478 433 l 5
 36 433 l 5
EndSplineSet
Refer: 64 84 N 0.25 0 0 0.25 262 244 2
Refer: 50 86 N 0.25 0 0 0.25 118 244 2
Validated: 1
EndChar
StartChar: uni240C
Encoding: 9228 9228 383
Width: 480
VWidth: 243
Flags: HW
LayerCount: 2
Fore
SplineSet
104.5 452 m 1
 375.5 452 l 1
 375.5 194 l 1
 104.5 194 l 1
 104.5 452 l 1
124.5 433 m 1
 124.5 215 l 1
 358.5 215 l 1
 358.5 433 l 1
 124.5 433 l 1
EndSplineSet
Refer: 129 70 N 0.25 0 0 0.25 234.5 244 2
Refer: 129 70 N 0.25 0 0 0.25 134.5 244 2
EndChar
StartChar: uni240E
Encoding: 9230 9230 438
Width: 512
VWidth: 244
Flags: W
HStem: 194 21<36 478> 242.5 26.25<141.982 187.084> 242.75 26.5<293.589 341.362> 312.75 26.5<146.167 187.009> 368.75 5.25G<197.25 204.708> 382.25 25.25<293.589 341.362> 384.5 26.25<148.535 189.54> 433 19<36 478>
VStem: 16 20<215 433> 112.25 26.25<346.491 374.924> 196.25 25<277.499 304.734> 235.25 25.5<301.917 350.047> 373.75 24.25<301.917 350.047> 478 18<215 433>
LayerCount: 2
Fore
SplineSet
16 452 m 5x99fc
 496 452 l 5
 496 194 l 5
 16 194 l 5
 16 452 l 5x99fc
36 433 m 5
 36 215 l 5
 478 215 l 5
 478 433 l 5
 36 433 l 5
EndSplineSet
Refer: 412 79 N 0.25 0 0 0.25 229 245 2
Refer: 416 83 N 0.25 0 0 0.25 106 245 2
Validated: 1
EndChar
StartChar: uni240F
Encoding: 9231 9231 439
Width: 512
VWidth: 244
Flags: HW
LayerCount: 2
Fore
SplineSet
16 452 m 5
 496 452 l 5
 496 194 l 5
 16 194 l 5
 16 452 l 5
36 433 m 5
 36 215 l 5
 478 215 l 5
 478 433 l 5
 36 433 l 5
EndSplineSet
Refer: 67 73 N 0.25 0 0 0.25 271.875 244.875 2
Refer: 416 83 N 0.25 0 0 0.25 149.125 244.875 2
EndChar
StartChar: uni2415
Encoding: 9237 9237 440
Width: 512
VWidth: 243
Flags: W
HStem: 194 21<36 478> 244 5.25G<48.5 75 145.311 175 199.5 224.073 306.988 333 357.5 381.5 430.3 463.5> 285 24<249 283> 401.5 5G<48.5 78.1887 148.5 175 264.196 268.304 357.5 381.5 428.854 463.5> 433 19<36 478>
VStem: 16 20<215 433> 48.5 26.5<244 359.25> 148.5 26.5<291.25 406.5> 357.5 24<244 325.25 326.25 406.5> 478 18<215 433>
LayerCount: 2
Fore
SplineSet
16 452 m 5
 496 452 l 5
 496 194 l 5
 16 194 l 5
 16 452 l 5
36 433 m 5
 36 215 l 5
 478 215 l 5
 478 433 l 5
 36 433 l 5
EndSplineSet
Refer: 411 75 N 0.25 0 0 0.25 345 244 2
Refer: 55 65 N 0.25 0 0 0.25 187 244 2
Refer: 413 78 N 0.25 0 0 0.25 36 244 2
Validated: 1
EndChar
StartChar: uni2416
Encoding: 9238 9238 441
Width: 512
VWidth: 244
Flags: W
HStem: 194 21<36 478> 242.5 26.25<86.9823 132.084> 245 5.25G<230.75 254.75 326.5 353 423.311 453> 312.75 26.5<91.1672 132.009> 368.75 5.25G<142.25 149.708> 384.5 26.25<93.5349 134.54> 402.5 5G<185 211.762 272.573 300.5 326.5 356.189 426.5 453> 433 19<36 478>
VStem: 16 20<215 433> 57.25 26.25<346.491 374.924> 141.25 25<277.499 304.734> 230.75 24<245 308.5> 326.5 26.5<245 360.25> 426.5 26.5<292.25 407.5> 478 18<215 433>
LayerCount: 2
Fore
SplineSet
16 452 m 5x99fe
 496 452 l 5
 496 194 l 5
 16 194 l 5
 16 452 l 5x99fe
36 433 m 5
 36 215 l 5
 478 215 l 5
 478 433 l 5
 36 433 l 5
EndSplineSet
Refer: 413 78 N 0.25 0 0 0.25 314 245 2
Refer: 65 89 N 0.25 0 0 0.25 174 245 2
Refer: 416 83 N 0.25 0 0 0.25 51 245 2
Validated: 1
EndChar
StartChar: uni2417
Encoding: 9239 9239 442
Width: 512
VWidth: 243
Flags: W
HStem: 194 21<36 478> 244 5.25G<237 261> 244 26.5<103 167 359 404.889> 312 25.75<103 167 359 404.18> 380 26.5<103 167 359 404.215> 382.5 24<192.5 237 261 305.5> 433 19<36 478>
VStem: 16 20<215 433> 76.5 26.5<270.5 312 337.75 380> 76.5 90.5<244 270.5 312 337.75 380 406.5> 237 24<244 382.5> 332.5 26.5<270.5 312 337.75 380> 411.5 22.25<277.661 305.464 345.359 372.499> 478 18<215 433>
LayerCount: 2
Fore
SplineSet
16 452 m 5x933c
 496 452 l 5
 496 194 l 5
 16 194 l 5
 16 452 l 5x933c
36 433 m 5
 36 215 l 5
 478 215 l 5
 478 433 l 5
 36 433 l 5
EndSplineSet
Refer: 415 66 N 0.25 0 0 0.25 320 244 2
Refer: 64 84 N 0.25 0 0 0.25 180 244 2
Refer: 128 69 N 0.25 0 0 0.25 64 244 2
Validated: 1
EndChar
StartChar: uni2419
Encoding: 9241 9241 443
Width: 512
VWidth: 243
Flags: W
HStem: 194 21<36 478> 244 5.25G<242.5 269 358.5 385> 244 26.5<153 217> 312 25.75<153 217> 380 26.5<153 217> 401.5 5G<242.5 272.185 355.315 385> 433 19<36 478>
VStem: 16 20<215 433> 126.5 26.5<270.5 312 337.75 380> 126.5 90.5<244 270.5 312 337.75 380 406.5> 242.5 26.5<244 359.25> 358.5 26.5<244 359.25> 478 18<215 433>
LayerCount: 2
Fore
SplineSet
16 452 m 5x9338
 496 452 l 5
 496 194 l 5
 16 194 l 5
 16 452 l 5x9338
36 433 m 5
 36 215 l 5
 478 215 l 5
 478 433 l 5
 36 433 l 5
EndSplineSet
Refer: 414 77 N 0.25 0 0 0.25 230 244 2
Refer: 128 69 N 0.25 0 0 0.25 114 244 2
Validated: 1
EndChar
StartChar: uni241A
Encoding: 9242 9242 444
Width: 512
VWidth: 244
Flags: HW
LayerCount: 2
Fore
SplineSet
16 452 m 5
 496 452 l 5
 496 194 l 5
 16 194 l 5
 16 452 l 5
36 433 m 5
 36 215 l 5
 478 215 l 5
 478 433 l 5
 36 433 l 5
EndSplineSet
Refer: 415 66 N 0.25 0 0 0.25 327 245 2
Refer: 130 85 N 0.25 0 0 0.25 186 245 2
Refer: 416 83 N 0.25 0 0 0.25 63 245 2
Validated: 1
EndChar
StartChar: uni241C
Encoding: 9244 9244 445
Width: 512
VWidth: 244
Flags: W
HStem: 194 21<36 478> 242.5 26.25<284.982 330.084> 245 5.25G<146.5 173> 312.75 26.5<289.167 330.009> 313 25.75<173 237> 368.75 5.25G<340.25 347.708> 381 26.5<173 237> 384.5 26.25<291.535 332.54> 433 19<36 478>
VStem: 16 20<215 433> 146.5 26.5<245 313 338.75 381> 255.25 26.25<346.491 374.924> 339.25 25<277.499 304.734> 478 18<215 433>
LayerCount: 2
Fore
SplineSet
16 452 m 5x84fc
 496 452 l 5
 496 194 l 5
 16 194 l 5
 16 452 l 5x84fc
36 433 m 5
 36 215 l 5
 478 215 l 5
 478 433 l 5
 36 433 l 5
EndSplineSet
Refer: 416 83 N 0.25 0 0 0.25 249 245 2
Refer: 129 70 N 0.25 0 0 0.25 134 245 2
Validated: 1
EndChar
StartChar: uni241F
Encoding: 9247 9247 446
Width: 512
VWidth: 244
Flags: HW
LayerCount: 2
Fore
SplineSet
16 452 m 1
 496 452 l 1
 496 194 l 1
 16 194 l 1
 16 452 l 1
36 433 m 1
 36 215 l 1
 478 215 l 1
 478 433 l 1
 36 433 l 1
EndSplineSet
Refer: 416 83 N 0.25 0 0 0.25 262 245 2
Refer: 130 85 N 0.25 0 0 0.25 121 245 2
Validated: 1
EndChar
